<svg xmlns="http://www.w3.org/2000/svg" xmlns:xlink="http://www.w3.org/1999/xlink" width="34" height="43"><g fill="#000" fill-rule="nonzero"><path d="M31.48 2.056h-3.132a.63.63 0 0 0-.629.629.63.63 0 0 0 .629.629h.4V38.04H5.267V3.314h2.616v1.43A1.99 1.99 0 0 0 9.868 6.73h2.972c.297 1.64 1.736 2.9 3.46 2.9h1.4c1.724 0 3.163-1.248 3.46-2.9h2.972a1.99 1.99 0 0 0 1.986-1.986V2.028A1.99 1.99 0 0 0 24.134.042H9.87a1.99 1.99 0 0 0-1.985 1.986v.028h-5.36A2.51 2.51 0 0 0 .016 4.564V29.8a.63.63 0 0 0 .629.629.63.63 0 0 0 .629-.629V4.564a1.25 1.25 0 0 1 1.25-1.25H4V38.67a.63.63 0 0 0 .629.629h24.727a.63.63 0 0 0 .629-.629V3.314h1.486a1.25 1.25 0 0 1 1.25 1.25v35.903a1.25 1.25 0 0 1-1.25 1.251H2.524a1.25 1.25 0 0 1-1.25-1.251v-7.692a.63.63 0 0 0-.629-.629.63.63 0 0 0-.629.629v7.692a2.51 2.51 0 0 0 2.507 2.508H31.48a2.51 2.51 0 0 0 2.507-2.508V4.564a2.51 2.51 0 0 0-2.507-2.508h0zM9.14 2.028a.73.73 0 0 1 .728-.728h14.266a.73.73 0 0 1 .728.728v2.714a.73.73 0 0 1-.728.728H20.6a.63.63 0 0 0-.629.629c0 1.246-1.014 2.26-2.26 2.26h-1.4c-1.246 0-2.26-1.014-2.26-2.26a.63.63 0 0 0-.629-.629H9.87a.73.73 0 0 1-.728-.728V2.028zM25 17.25h-3.324l-2.125-5.804a.63.63 0 0 0-1.199.061l-2.282 9-2.203-6.412a.63.63 0 0 0-1.143-.103L10.9 17.25H8.994a.63.63 0 0 0-.629.629.63.63 0 0 0 .629.629h2.275a.63.63 0 0 0 .549-.321l1.326-2.366 2.432 7.077a.63.63 0 0 0 1.204-.05l2.3-9.06 1.576 4.306a.63.63 0 0 0 .59.413h3.763a.63.63 0 0 0 .629-.629.63.63 0 0 0-.628-.629h0z"/><use xlink:href="#B"/><use xlink:href="#B" y="5.542"/></g><defs ><path id="B" d="M25.01 27.62H8.994a.63.63 0 0 0-.629.629.63.63 0 0 0 .629.629H25.01a.63.63 0 0 0 .629-.629.63.63 0 0 0-.629-.629z"/></defs></svg>