<svg xmlns="http://www.w3.org/2000/svg" width="43" height="43" fill="#000" fill-rule="nonzero"><path d="M30.256 36.267l1.15-1.15.98.98-1.15 1.15zm4.288-2.317a2.84 2.84 0 0 0-1.931-4.82l-.032 1.386c.773.018 1.403.662 1.403 1.436 0 .378-.153.748-.42 1.015l-1.22 1.22.98.98 1.22-1.218zm-6.802-2.75h1.387v6.242h-1.387z"/><circle cx="28.435" cy="39.532" r="1"/><path d="M39.532 0H18.726c-1.912 0-3.468 1.556-3.468 3.468v2.235a9.45 9.45 0 0 0-4.211 1.91l-.94.753c-2.652.53-4.558 2.84-4.558 5.563v1.33c0 3.645 2.096 7.02 5.353 8.662.472.536 1.004 1.02 1.583 1.45v.473c0 .865-.52 1.626-1.327 1.94l-5.41 2.104A8.96 8.96 0 0 0 0 38.29V43h28.435a2.35 2.35 0 0 0 1.674-.694l6.396-6.396a5.56 5.56 0 0 0 1.64-3.958c0-3.086-2.51-5.598-5.598-5.598a5.56 5.56 0 0 0-3.958 1.64l-.154.154-.154-.154a5.56 5.56 0 0 0-3.958-1.64c-1.406 0-2.688.524-3.672 1.383a2.06 2.06 0 0 1-1.232-1.893v-.473c.578-.43 1.11-.915 1.583-1.45a9.68 9.68 0 0 0 2.411-1.726h16.12c1.912 0 3.468-1.556 3.468-3.468V3.468C43 1.556 41.444 0 39.532 0zm-15.21 27.742a4.18 4.18 0 0 1 2.977 1.233l1.135 1.135 1.135-1.135a4.18 4.18 0 0 1 2.977-1.233c2.32 0 4.21 1.89 4.21 4.21a4.18 4.18 0 0 1-1.233 2.977l-6.396 6.396a1.02 1.02 0 0 1-1.387 0l-6.396-6.396a4.18 4.18 0 0 1-1.233-2.977c0-2.32 1.89-4.21 4.21-4.21zM19.7 28.804c-.613.897-.973 1.98-.973 3.15a5.56 5.56 0 0 0 1.64 3.958l5.702 5.702H6.935v-6.935H5.548v6.935h-4.16V38.3a7.58 7.58 0 0 1 4.864-7.11l5.41-2.104c1.22-.475 2.043-1.57 2.182-2.848.6.318 1.237.59 1.9.79l.2.06.2-.06c.673-.202 1.31-.472 1.9-.79a3.43 3.43 0 0 0 1.637 2.575h0zm-3.747-3.175a8.98 8.98 0 0 1-6.242-8.595v-.59a1.88 1.88 0 0 1 1.878-1.878c.716 0 1.36.398 1.68 1.038l.956 1.91 5.735-2.15c.186-.07.38-.105.58-.105.913 0 1.655.742 1.655 1.655v.12a8.98 8.98 0 0 1-6.242 8.596h0zM20.54 13.87a3.04 3.04 0 0 0-1.068.194l-4.566 1.712-.397-.794c-.556-1.113-1.676-1.805-2.92-1.805a3.27 3.27 0 0 0-3.265 3.265v.59c0 1.288.238 2.525.665 3.672-1.294-1.49-2.052-3.42-2.052-5.448v-1.33c0-2.104 1.506-3.882 3.582-4.228l.178-.03 1.218-.974a8.06 8.06 0 0 1 5.019-1.761c4.43 0 8.035 3.604 8.035 8.035v.288c0 2.027-.758 3.957-2.052 5.447.428-1.147.665-2.384.665-3.672v-.12c0-1.678-1.365-3.043-3.042-3.043zm5.746 0h3.385l1.064-4.255 3.32 6.64L35.84 11.8h2.998v6.242H25.94a9.6 9.6 0 0 0 .413-2.774v-.288a9.43 9.43 0 0 0-.07-1.099h0zm12.554-3.468H34.9l-.988 2.47-3.615-7.23-1.71 6.842H26.01a9.44 9.44 0 0 0-6.591-6.591V4.16h19.42v6.242zm2.774 8.323c0 1.147-.934 2.08-2.08 2.08H24.6c.307-.44.578-.903.8-1.387h13.44a1.39 1.39 0 0 0 1.387-1.387V4.16a1.39 1.39 0 0 0-1.387-1.387H19.42a1.39 1.39 0 0 0-1.387 1.387v1.457a9.43 9.43 0 0 0-1.099-.07c-.096 0-.192.01-.288.012V3.468c0-1.147.934-2.08 2.08-2.08h20.806c1.147 0 2.08.934 2.08 2.08v15.258z"/></svg>