<svg width="104" height="84" viewBox="0 0 104 84" fill="none" xmlns="http://www.w3.org/2000/svg">
<rect x="4" y="4" width="96" height="76" rx="30" fill="#6579F4"/>
<rect x="1" y="1" width="102" height="82" rx="32" stroke="#6579F4" stroke-width="2"/>
<path d="M53.0398 27.8801C57.585 28.6522 60.5525 30.7895 62.2599 34.5208C64.0224 38.3726 63.9618 44.4519 62.1229 48.2833C60.8538 50.9277 59.2542 52.5587 56.7287 53.7832C53.8518 55.1784 52.0421 55.4169 44.8167 55.354L39.5139 55.3079V47.1379V38.968L42.4727 38.9264L45.4315 38.8851V44.6352V50.3855L48.2366 50.3004C51.2261 50.2098 52.2376 50.0269 53.6325 49.3247C55.276 48.4972 56.5673 46.6366 57.0578 44.3892C57.3649 42.9819 57.3978 40.148 57.1251 38.5862C56.5844 35.4882 54.6339 33.3697 51.9153 32.9273C51.4296 32.8482 45.735 32.7846 39.0912 32.7842L27.1407 32.7833V35.8348V38.8864L31.0218 38.9272L34.9028 38.968V41.4877V44.0074L31.0236 44.0482L27.1446 44.0889L27.1042 49.6984L27.0639 55.3079L24.1051 55.3494L21.1463 55.3908V41.5928C21.1463 34.0039 21.1924 27.7489 21.2488 27.693C21.3051 27.6369 28.1008 27.5916 36.3502 27.592C50.3274 27.5928 51.4642 27.6125 53.0398 27.8801Z" fill="white"/>
<path d="M78.454 27.8584C78.5314 28.0054 78.8531 28.8472 79.1688 29.7291C79.4847 30.611 80.2841 32.7413 80.9452 34.4631C81.6064 36.1849 82.8198 39.3803 83.6415 41.564C84.4632 43.7478 85.9535 47.6991 86.953 50.3448C87.9527 52.9905 88.7718 55.2066 88.7733 55.2697C88.7747 55.3328 87.398 55.3842 85.714 55.3842H82.6519L79.22 45.0773C77.3324 39.4084 75.7534 34.7717 75.7111 34.7735C75.6688 34.7755 75.3095 35.7544 74.9126 36.9489C74.1324 39.2972 72.7302 43.3866 72.5596 43.8116C72.4638 44.05 72.6284 44.0781 74.3458 44.117L76.2372 44.1601L76.9005 46.4446C77.2652 47.7011 77.5294 48.8179 77.4876 48.9262C77.4287 49.0784 76.6688 49.1232 74.1372 49.1232H70.8628L70.2761 50.8411C69.9535 51.7861 69.4689 53.1776 69.1991 53.9335L68.7088 55.3079L65.5238 55.3491C63.7722 55.3719 62.3389 55.3476 62.3389 55.2952C62.3389 55.1908 65.4463 46.9067 67.5061 41.5201C68.2221 39.6481 69.2826 36.8307 69.8631 35.259C70.4435 33.6873 71.2944 31.4394 71.7537 30.2635C72.2131 29.0877 72.6321 28.0054 72.685 27.8584C72.7717 27.6172 73.0519 27.5911 75.5471 27.5911C78.0254 27.5911 78.3279 27.6189 78.454 27.8584Z" fill="white"/>
</svg>
