<svg xmlns="http://www.w3.org/2000/svg" xmlns:xlink="http://www.w3.org/1999/xlink" width="39" height="39"><g fill="#000" fill-rule="nonzero"><path d="M7.667 6h.667C8.702 6 9 5.776 9 5.5S8.702 5 8.333 5h-.667C7.298 5 7 5.224 7 5.5s.298.5.667.5zm3 0h8.667c.368 0 .667-.224.667-.5s-.298-.5-.667-.5h-8.667C10.3 5 10 5.224 10 5.5s.3.5.667.5h0zM33.1 20.8h-1.412a3.06 3.06 0 0 0-.887.13.6.6 0 0 0-.065.019 3.01 3.01 0 0 0-.944.534c.14-1.495.88-3.666 3.7-5.325a.65.65 0 0 0-.661-1.119 8.56 8.56 0 0 0-3.851 4.315l-.112-.325a5.34 5.34 0 0 0-1.56-2.2V5.85a1.95 1.95 0 0 0-1.95-1.95h-2.72a1.95 1.95 0 0 0-1.831-1.3h-3.482C16.77 1.043 15.3 0 13.65 0a3.89 3.89 0 0 0-3.668 2.6H6.5a1.95 1.95 0 0 0-1.83 1.3H1.95A1.95 1.95 0 0 0 0 5.851v31.2A1.95 1.95 0 0 0 1.95 39h23.4c.304 0 .603-.072.874-.2.594.14 1.2.2 1.8.2h2.43C35.17 39 39 34.92 39 29.9v-2.814c0-3.464-2.647-6.285-5.9-6.285h0zm-5.456-1.307a8.73 8.73 0 0 1 .363 1.567c-.065-.028-.123-.065-.188-.087a2.95 2.95 0 0 0-.997-.173H25.4a5.63 5.63 0 0 0-.528.029c-.016-.004-.028-.015-.045-.018-2.15-.43-2.122-2.94-2.04-3.84a10.56 10.56 0 0 1 1.249-.07h.014c1.627.015 3.068 1.054 3.594 2.594v-.003zM21.04 35.1H3.9V7.8h.77A1.95 1.95 0 0 0 6.5 9.1h14.3a1.95 1.95 0 0 0 1.831-1.3h.77v7.8c-1.68.06-1.8.527-1.85.794-.23 1.337-.112 3.705 1.435 4.955-2.162 1.084-3.516 3.308-3.485 5.726V29.9a9.46 9.46 0 0 0 1.54 5.2zM26 5.85v10.17a5.2 5.2 0 0 0-1.3-.356V7.8a1.3 1.3 0 0 0-1.3-1.3h-.65V5.2h2.6a.65.65 0 0 1 .65.65h0zM6.5 3.9h3.965c.022-.003.043-.008.065-.014a.64.64 0 0 0 .12-.024.61.61 0 0 0 .119-.049c.108-.058.197-.147.255-.255a.58.58 0 0 0 .05-.119.54.54 0 0 0 .026-.06 2.6 2.6 0 0 1 5.095 0c.008.024.017.046.027.07a.75.75 0 0 0 .037.093.68.68 0 0 0 .08.118 1.45 1.45 0 0 0 .06.07c.04.033.08.062.126.085a.51.51 0 0 0 .311.088H20.8a.65.65 0 0 1 .65.65v2.6a.65.65 0 0 1-.65.65H6.5a.65.65 0 0 1-.65-.65v-2.6a.65.65 0 0 1 .65-.65zM1.95 37.7a.65.65 0 0 1-.65-.65V5.85a.65.65 0 0 1 .65-.65h2.6v1.3H3.9a1.3 1.3 0 0 0-1.3 1.3v27.3a1.3 1.3 0 0 0 1.3 1.3h18.173a8.76 8.76 0 0 0 1.587 1.3H1.95zm35.75-7.8c0 4.3-3.246 7.8-7.235 7.8h-2.43c-4 0-7.235-3.498-7.235-7.8v-2.814c0-2.748 2.064-4.985 4.6-4.985h1.433a1.66 1.66 0 0 1 .545.098c.756.303 1.243 1.044 1.22 1.858v.644a.65.65 0 1 0 1.3 0v-.646c-.024-.813.46-1.555 1.213-1.86l.03-.01c.168-.054.343-.083.52-.085h1.44c2.537.001 4.6 2.24 4.6 4.987V29.9zm-12.756-6.862c-.12.035-2.944.915-2.944 4.248 0 .395.358.714.8.714s.8-.32.8-.714c0-2.266 1.768-2.866 1.858-2.895.418-.126.643-.532.5-.905s-.595-.574-1.013-.448h0zM8.57 11H6.43A1.43 1.43 0 0 0 5 12.429v2.143A1.43 1.43 0 0 0 6.429 16h2.14A1.43 1.43 0 0 0 10 14.571v-2.14A1.43 1.43 0 0 0 8.571 11zm-2.14 3.57v-2.14h2.14v2.143H6.43zM8.57 17H6.43A1.43 1.43 0 0 0 5 18.429v2.143A1.43 1.43 0 0 0 6.429 22h2.14A1.43 1.43 0 0 0 10 20.571v-2.14A1.43 1.43 0 0 0 8.571 17zm-2.14 3.57v-2.14h2.14v2.143H6.43z"/><path d="M8.57 22H6.43A1.43 1.43 0 0 0 5 23.429v2.143A1.43 1.43 0 0 0 6.429 27h2.14A1.43 1.43 0 0 0 10 25.571v-2.14A1.43 1.43 0 0 0 8.571 22h0zm-2.14 3.57v-2.14h2.14v2.143H6.43zM8.57 28H6.43A1.43 1.43 0 0 0 5 29.429v2.143A1.43 1.43 0 0 0 6.429 33h2.14A1.43 1.43 0 0 0 10 31.571v-2.14A1.43 1.43 0 0 0 8.571 28h0zm-2.14 3.57v-2.14h2.14v2.143H6.43zM11.625 15h8.75c.345 0 .625-.224.625-.5s-.28-.5-.625-.5h-8.75c-.345 0-.625.224-.625.5s.28.5.625.5zm6.76 4h-6.77c-.34 0-.616.224-.616.5s.276.5.616.5h6.77c.34 0 .616-.224.616-.5s-.276-.5-.616-.5h0z"/><use xlink:href="#B"/><use xlink:href="#B" y="7"/></g><defs ><path id="B" d="M17.364 24h-5.727c-.352 0-.636.224-.636.5s.285.5.636.5h5.727c.352 0 .636-.224.636-.5s-.285-.5-.636-.5h0z"/></defs></svg>