<svg width="94" height="94" viewBox="0 0 94 94" fill="none" xmlns="http://www.w3.org/2000/svg">
<circle cx="47" cy="47" r="46" stroke="#6579F4" stroke-width="2"/>
<path fill-rule="evenodd" clip-rule="evenodd" d="M44.5191 5.02963C41.4413 5.26999 38.907 5.67796 36.391 6.33801C24.6237 9.42523 14.8303 17.3706 9.39358 28.2408C7.0494 32.9277 5.65822 37.8467 5.13928 43.2826C4.9024 45.7633 4.97577 49.9035 5.29783 52.2411C6.23468 59.0387 8.29406 64.6093 11.8978 70.094C16.0569 76.4241 21.5707 81.2987 28.3684 84.6554C31.7308 86.3158 34.8824 87.4123 38.3558 88.1303C41.4772 88.7756 43.6906 88.9983 46.9998 89C50.0747 89.0017 52.5709 88.7603 55.3761 88.19C68.8963 85.4412 80.2437 76.1697 85.6629 63.444C89.2515 55.0169 89.9786 45.3371 87.6849 36.527C85.8162 29.3493 82.2567 23.0129 77.1373 17.7505C70.263 10.6842 61.5261 6.39237 51.6445 5.22755C50.293 5.06816 45.6694 4.93981 44.5191 5.02963ZM47.5308 15.871L48.009 17.3685L49.6798 17.4213L51.3505 17.474L50.0989 18.3608C49.4104 18.8485 48.8072 19.2826 48.7583 19.3257C48.7096 19.3687 48.8877 20.071 49.1542 20.8866C49.4207 21.7021 49.6388 22.4187 49.6388 22.4791C49.6388 22.5395 49.2706 22.3149 48.8207 21.98C47.3917 20.9167 47.0665 20.6934 46.9526 20.6975C46.8915 20.6997 46.2714 21.1229 45.5747 21.6379C44.878 22.153 44.2978 22.5645 44.2853 22.5525C44.2729 22.5404 44.4734 21.8916 44.7311 21.1107C44.9889 20.3297 45.201 19.6098 45.2024 19.5109C45.2042 19.3997 44.6955 18.9666 43.8696 18.3761L42.534 17.4213H44.2227H45.9115L46.4222 15.8396C46.7031 14.9697 46.9598 14.284 46.9927 14.3158C47.0257 14.3475 47.2678 15.0474 47.5308 15.871ZM33.4055 19.6907L33.8698 21.1685L35.5376 21.2213L37.2054 21.2741L35.9591 22.1713C35.2737 22.6648 34.6689 23.0987 34.615 23.1357C34.5599 23.1736 34.7499 23.8993 35.0509 24.7999C35.3444 25.6782 35.5283 26.3624 35.4599 26.3204C35.3914 26.2783 34.7954 25.8501 34.1356 25.3687C33.4757 24.8874 32.8932 24.4936 32.8412 24.4936C32.7892 24.4936 32.1653 24.9169 31.4548 25.4344C30.7442 25.9518 30.1516 26.364 30.1378 26.3504C30.1239 26.3368 30.349 25.6199 30.6379 24.7574C30.9269 23.8949 31.152 23.1819 31.1381 23.1728C31.1243 23.1637 30.5028 22.7209 29.757 22.1888L28.4011 21.2213H30.0956H31.7899L32.2886 19.6359C32.5629 18.7639 32.822 18.0871 32.8643 18.1318C32.9066 18.1764 33.1502 18.8779 33.4055 19.6907ZM61.684 19.613L62.1702 21.1685L63.8368 21.2213L65.5034 21.2741L64.2581 22.1713C63.5731 22.6648 62.9724 23.0951 62.9231 23.1276C62.8739 23.1602 63.065 23.9073 63.3477 24.7878C63.6305 25.6685 63.8087 26.3571 63.7437 26.3181C63.6788 26.2792 63.0908 25.8527 62.4372 25.3704C61.7836 24.8881 61.2004 24.4936 61.1413 24.4936C61.0822 24.4936 60.4544 24.9183 59.7461 25.4374C59.0379 25.9566 58.4478 26.3707 58.4349 26.3577C58.4218 26.3447 58.645 25.6258 58.9308 24.7601C59.2165 23.8944 59.4398 23.1786 59.4268 23.1694C59.4138 23.1604 58.7937 22.7183 58.0488 22.1871L56.6944 21.2213H58.39H60.0856L60.5851 19.6379C60.8599 18.7671 61.1102 18.0552 61.1412 18.0561C61.1723 18.0568 61.4165 18.7575 61.684 19.613ZM72.0018 29.945L72.5007 31.5131H74.1594C75.0716 31.5131 75.8171 31.5368 75.8158 31.5659C75.8147 31.5949 75.3278 31.9639 74.7338 32.386C74.1398 32.808 73.5425 33.2391 73.4063 33.3441L73.1588 33.5347L73.6456 35.0466C73.9134 35.8782 74.1123 36.5787 74.0877 36.6034C74.063 36.6281 73.4599 36.2184 72.7476 35.693C71.9497 35.1045 71.409 34.7718 71.3392 34.8266C70.3986 35.5641 68.7252 36.731 68.7669 36.6201C69.064 35.8312 69.6975 33.624 69.6572 33.5189C69.6287 33.4446 69.0342 32.9866 68.3361 32.5012C67.638 32.0157 67.0644 31.5949 67.0615 31.5659C67.0584 31.5368 67.8071 31.5271 68.7253 31.5443L70.3946 31.5756L70.9158 29.9439C71.2025 29.0464 71.4518 28.3267 71.47 28.3446C71.488 28.3624 71.7273 29.0826 72.0018 29.945ZM23.0421 30.0145L23.5216 31.5131L25.2449 31.5421L26.9682 31.5712L25.6099 32.5358C24.8627 33.0664 24.2345 33.5137 24.2138 33.5296C24.1932 33.5457 24.4151 34.2742 24.7072 35.1484C24.9994 36.0228 25.2173 36.7381 25.1914 36.7381C25.1656 36.7381 24.5942 36.331 23.9217 35.8333C23.249 35.3357 22.6407 34.9062 22.5696 34.879C22.4986 34.8517 21.8979 35.2261 21.2347 35.7111C20.5717 36.1959 19.9741 36.6254 19.907 36.6656C19.7996 36.7297 20.2106 35.2746 20.6578 34.007L20.8136 33.5651L20.1195 33.0669C19.7377 32.7928 19.1112 32.3431 18.7272 32.0672L18.0293 31.5659H19.7399H21.4505L21.9488 29.9864C22.2229 29.1177 22.4732 28.4315 22.5048 28.4614C22.5366 28.4914 22.7783 29.1903 23.0421 30.0145ZM77.9578 45.6286L79.6708 45.6577L78.2892 46.6458L76.9076 47.6338L77.4053 49.1791C77.6791 50.029 77.8883 50.741 77.8703 50.7612C77.8524 50.7815 77.3951 50.4713 76.8541 50.0716C76.3132 49.6721 75.719 49.2387 75.5336 49.1084L75.1968 48.8716L73.9054 49.8235C73.1952 50.347 72.5946 50.756 72.571 50.7323C72.5473 50.7087 72.7473 50.0184 73.0153 49.1984C73.2833 48.3783 73.4803 47.6713 73.4529 47.627C73.4257 47.5829 72.804 47.1217 72.0713 46.6022L70.7393 45.6577L72.4649 45.6288L74.1906 45.6L74.702 43.9927L75.2136 42.3854L75.7292 43.9925L76.2448 45.5997L77.9578 45.6286ZM19.2543 44.1027L19.7461 45.6577L21.4071 45.7104L23.0681 45.7632L21.8228 46.6605C21.1378 47.1539 20.5371 47.5843 20.4878 47.6168C20.4386 47.6493 20.6296 48.3964 20.9124 49.277C21.1952 50.1577 21.3734 50.8462 21.3084 50.8073C21.2435 50.7683 20.6555 50.3419 20.0019 49.8596C19.3482 49.3773 18.7651 48.9827 18.706 48.9827C18.6469 48.9827 18.0191 49.4075 17.3108 49.9266C16.6026 50.4457 16.014 50.8614 16.0029 50.8502C15.9917 50.839 16.2146 50.1198 16.4981 49.2519C16.7817 48.3839 17.0032 47.6674 16.9907 47.6597C16.9781 47.6518 16.3577 47.2101 15.6119 46.678L14.256 45.7104H15.9531H17.6503L18.1498 44.1271C18.4246 43.2563 18.6749 42.5447 18.7059 42.5458C18.7369 42.5469 18.9837 43.2475 19.2543 44.1027ZM37.0145 44.238C37.3242 44.3539 37.756 44.6218 37.9739 44.8335C38.3862 45.234 38.9214 46.2344 38.7892 46.3578C38.7475 46.3969 38.3702 46.4982 37.9509 46.5831L37.1885 46.7373L36.9916 46.3558C36.4121 45.2324 34.5902 45.1019 33.6722 46.118C33.1883 46.6537 33.0229 47.1709 33.0264 48.1383C33.03 49.1683 33.2025 49.7442 33.6588 50.2492C34.3701 51.0365 35.5317 51.1997 36.6122 50.6643C37.1246 50.4104 37.1302 50.4021 37.1618 49.8535L37.1938 49.2994H36.2381H35.2826V48.6133V47.9271H37.1325H38.9826L38.9535 49.5847L38.9244 51.2423L38.5022 51.5332C38.27 51.6931 37.7237 51.9566 37.2882 52.1187C36.601 52.3744 36.3502 52.4126 35.3882 52.4077C34.0476 52.4009 33.3418 52.1659 32.5652 51.4676C31.7045 50.6939 31.2786 49.5905 31.2738 48.1229C31.2673 46.0593 32.436 44.465 34.2353 44.0828C35.0976 43.8997 36.288 43.9662 37.0145 44.238ZM45.0588 44.283C46.7561 44.787 47.7167 47.2194 47.1566 49.5949C46.964 50.4115 46.7825 50.7721 46.2885 51.3189C45.5152 52.1747 44.6483 52.3854 42.0912 52.3387L40.4023 52.3077L40.3746 48.2174L40.3471 44.1271H42.4403C43.9795 44.1271 44.6726 44.1684 45.0588 44.283ZM53.3627 44.239C53.582 44.2999 53.9339 44.5011 54.1446 44.6861C54.701 45.1746 54.912 45.7163 54.9136 46.6605C54.9147 47.3475 54.8732 47.5248 54.5997 48.0015C54.3812 48.3826 54.1309 48.6412 53.7827 48.8459C53.3102 49.1236 53.1952 49.1432 51.8292 49.1776L50.3777 49.2141V50.7873V52.3605H49.5333H48.6888V48.2438V44.1271L50.8264 44.1277C52.002 44.128 53.1434 44.1781 53.3627 44.239ZM61.4088 44.2436C62.6528 44.5834 63.2977 45.9605 62.8463 47.3132C62.6755 47.8249 61.9979 48.4252 61.4155 48.581L60.9491 48.7057L61.4366 49.1345C61.8573 49.5047 62.5732 50.5081 63.4557 51.9647L63.6956 52.3605H62.6886H61.6817L60.7363 50.9619C59.646 49.349 59.4158 49.1056 58.8592 48.9764C57.9208 48.7586 57.9781 48.6518 57.9781 50.6188V52.3605H57.1336H56.2891V48.2438V44.1271L58.6379 44.1277C60.0064 44.128 61.1628 44.1764 61.4088 44.2436ZM42.144 48.1844V50.9014L43.2978 50.8656C44.6152 50.8249 44.8942 50.6984 45.2553 49.9786C45.5065 49.4781 45.6117 47.5966 45.4269 46.9104C45.1631 45.9307 44.6616 45.6208 43.1959 45.5315L42.144 45.4675V48.1844ZM50.3777 46.6591V47.8498L51.4109 47.8C52.5638 47.7445 52.9088 47.5982 53.1268 47.072C53.2291 46.8247 53.2306 46.6637 53.1333 46.3389C52.9625 45.7687 52.597 45.6007 51.368 45.5274L50.3777 45.4683V46.6591ZM57.9781 46.5602V47.6427L59.2264 47.58C59.9129 47.5454 60.5985 47.4608 60.7499 47.3918C61.3339 47.1258 61.3991 46.0931 60.8545 45.736C60.636 45.5929 60.2865 45.5439 59.276 45.5149L57.9781 45.4776V46.5602ZM23.0421 58.3037L23.5216 59.8023L25.2449 59.8313L26.9682 59.8604L25.6099 60.825C24.8627 61.3556 24.2345 61.8029 24.2138 61.8188C24.1932 61.8349 24.4151 62.5634 24.7072 63.4376C24.9994 64.312 25.2187 65.0273 25.1945 65.0273C25.1703 65.0273 24.6017 64.6213 23.9309 64.1249C23.2601 63.6286 22.647 63.1979 22.5684 63.1677C22.4897 63.1375 21.8862 63.5107 21.2273 63.997C20.5683 64.4832 19.9734 64.9145 19.9054 64.9553C19.7826 65.029 20.0147 64.1874 20.5486 62.6218L20.811 61.8524L20.1182 61.3551C19.7371 61.0816 19.1112 60.6322 18.7272 60.3564L18.0293 59.855H19.7399H21.4505L21.9488 58.2756C22.2229 57.4069 22.4732 56.7206 22.5048 56.7506C22.5366 56.7806 22.7783 57.4795 23.0421 58.3037ZM72.0164 58.3018L72.5005 59.8023L74.1745 59.855L75.8483 59.9078L74.603 60.8051C73.9181 61.2985 73.3129 61.7316 73.2582 61.7674C73.2012 61.8049 73.3683 62.4944 73.651 63.3877C73.9216 64.2429 74.128 64.9557 74.1095 64.9715C74.0912 64.9873 73.506 64.5796 72.8093 64.0654C72.1126 63.5512 71.5058 63.1298 71.4607 63.1289C71.4156 63.1281 70.7994 63.5521 70.0911 64.0712C69.3829 64.5903 68.7912 65.0029 68.7763 64.9881C68.7614 64.9732 68.9807 64.2628 69.2635 63.4095L69.7778 61.8581L68.4235 60.883L67.0693 59.9078L68.7362 59.8789L70.4031 59.85L70.9131 58.2709C71.1934 57.4023 71.4475 56.7164 71.4776 56.7465C71.5077 56.7766 71.7501 57.4764 72.0164 58.3018ZM35.5891 70.1996L37.2963 70.2524L35.928 71.2269L34.5596 72.2014L34.8121 73.0213C34.951 73.4723 35.1821 74.1857 35.3257 74.6066C35.4692 75.0275 35.5653 75.3719 35.539 75.3719C35.5128 75.3719 35.0525 75.0494 34.5161 74.6554C33.9798 74.2612 33.386 73.8301 33.1966 73.6973L32.8525 73.4559L31.5348 74.4139C30.8101 74.9408 30.1965 75.3719 30.1712 75.3719C30.1458 75.3719 30.3581 74.6767 30.6428 73.8269C30.9275 72.9771 31.1423 72.2528 31.1201 72.2171C31.0981 72.1815 30.4865 71.7249 29.761 71.2024L28.4422 70.2524L30.1428 70.1996L31.8433 70.1468L32.2867 68.7439C32.5304 67.9723 32.7619 67.2597 32.801 67.1605C32.8472 67.0434 33.049 67.5351 33.377 68.5635L33.882 70.1468L35.5891 70.1996ZM61.633 68.6137L62.1303 70.1945L63.8208 70.2235L65.5112 70.2524L64.199 71.193C63.4772 71.7102 62.8664 72.1501 62.8417 72.1703C62.8169 72.1906 63.0192 72.903 63.2913 73.7534C63.5634 74.6038 63.7725 75.3129 63.7561 75.3295C63.7396 75.3459 63.1438 74.9347 62.4321 74.4156C61.7205 73.8965 61.1171 73.4719 61.0912 73.4719C61.0653 73.4719 60.4647 73.8989 59.7565 74.4209C59.0483 74.943 58.4551 75.3563 58.4382 75.3394C58.4213 75.3225 58.6189 74.6461 58.8772 73.8361C59.1355 73.0262 59.3467 72.316 59.3466 72.258C59.3465 72.1999 58.7424 71.7249 58.0041 71.2024L56.6617 70.2524L58.3579 70.2235L60.0543 70.1945L60.5582 68.6137C60.8353 67.7443 61.0787 67.0329 61.0989 67.0329C61.1192 67.0329 61.3595 67.7443 61.633 68.6137ZM47.5159 72.3819L48.0128 73.9469L49.6816 73.9996L51.3505 74.0524L50.0989 74.9392C49.4104 75.4269 48.8062 75.8621 48.7561 75.9063C48.7061 75.9505 48.8891 76.6588 49.163 77.4804C49.4367 78.3019 49.6361 78.9988 49.6059 79.029C49.5757 79.0591 48.9952 78.6761 48.316 78.1779C47.6368 77.6796 47.0272 77.2737 46.9613 77.2759C46.8954 77.2781 46.2714 77.7013 45.5747 78.2163C44.878 78.7314 44.2978 79.1429 44.2853 79.1309C44.2729 79.1188 44.4734 78.47 44.7311 77.6891C44.9889 76.9081 45.201 76.1882 45.2024 76.0892C45.2042 75.9781 44.6955 75.545 43.8696 74.9545L42.534 73.9996H44.2267H45.9195L46.4069 72.4797C46.6749 71.6438 46.8942 70.8997 46.8942 70.8261C46.8942 70.5214 47.045 70.8988 47.5159 72.3819Z" fill="#6579F4"/>
<path d="M61.633 68.6137L62.1303 70.1945L63.8208 70.2235L65.5112 70.2524L64.199 71.193C63.4772 71.7102 62.8664 72.1501 62.8417 72.1703C62.8169 72.1906 63.0192 72.903 63.2913 73.7534C63.5634 74.6038 63.7725 75.3129 63.7561 75.3295C63.7396 75.3459 63.1438 74.9347 62.4321 74.4156C61.7205 73.8965 61.1171 73.4719 61.0912 73.4719C61.0653 73.4719 60.4647 73.8989 59.7565 74.4209C59.0483 74.943 58.4551 75.3563 58.4382 75.3394C58.4213 75.3225 58.6189 74.6461 58.8772 73.8361C59.1355 73.0262 59.3467 72.316 59.3466 72.258C59.3465 72.1999 58.7424 71.7249 58.0041 71.2024L56.6617 70.2524L58.3579 70.2235L60.0543 70.1945L60.5582 68.6137C60.8353 67.7443 61.0787 67.0329 61.0989 67.0329C61.1192 67.0329 61.3595 67.7443 61.633 68.6137Z" fill="white"/>
<path d="M72.0164 58.3018L72.5005 59.8023L74.1745 59.855L75.8483 59.9078L74.603 60.8051C73.9181 61.2985 73.3129 61.7316 73.2582 61.7674C73.2012 61.8049 73.3683 62.4944 73.651 63.3877C73.9216 64.2429 74.128 64.9557 74.1095 64.9715C74.0912 64.9873 73.506 64.5796 72.8093 64.0654C72.1126 63.5512 71.5058 63.1298 71.4607 63.1289C71.4156 63.1281 70.7994 63.5521 70.0911 64.0712C69.3829 64.5903 68.7912 65.0029 68.7763 64.9881C68.7614 64.9732 68.9807 64.2628 69.2635 63.4095L69.7778 61.8581L68.4235 60.883L67.0693 59.9078L68.7362 59.8789L70.4031 59.85L70.9131 58.2709C71.1934 57.4023 71.4475 56.7164 71.4776 56.7465C71.5077 56.7766 71.7501 57.4764 72.0164 58.3018Z" fill="white"/>
<path d="M77.9578 45.6286L79.6708 45.6577L78.2892 46.6458L76.9076 47.6338L77.4053 49.1791C77.6791 50.029 77.8883 50.741 77.8703 50.7612C77.8524 50.7815 77.3951 50.4713 76.8541 50.0716C76.3132 49.6721 75.719 49.2387 75.5336 49.1084L75.1968 48.8716L73.9054 49.8235C73.1952 50.347 72.5946 50.756 72.571 50.7323C72.5473 50.7087 72.7473 50.0184 73.0153 49.1984C73.2833 48.3783 73.4803 47.6713 73.4529 47.627C73.4257 47.5829 72.804 47.1217 72.0713 46.6022L70.7393 45.6577L72.4649 45.6288L74.1906 45.6L74.702 43.9927L75.2136 42.3854L75.7292 43.9925L76.2448 45.5997L77.9578 45.6286Z" fill="white"/>
<path d="M72.0018 29.945L72.5007 31.5131H74.1594C75.0716 31.5131 75.8171 31.5368 75.8158 31.5659C75.8147 31.5949 75.3278 31.9639 74.7338 32.386C74.1398 32.808 73.5425 33.2391 73.4063 33.3441L73.1588 33.5347L73.6456 35.0466C73.9134 35.8782 74.1123 36.5787 74.0877 36.6034C74.063 36.6281 73.4599 36.2184 72.7476 35.693C71.9497 35.1045 71.409 34.7718 71.3392 34.8266C70.3986 35.5641 68.7252 36.731 68.7669 36.6201C69.064 35.8312 69.6975 33.624 69.6572 33.5189C69.6287 33.4446 69.0342 32.9866 68.3361 32.5012C67.638 32.0157 67.0644 31.5949 67.0615 31.5659C67.0584 31.5368 67.8071 31.5271 68.7253 31.5443L70.3946 31.5756L70.9158 29.9439C71.2025 29.0464 71.4518 28.3267 71.47 28.3446C71.488 28.3624 71.7273 29.0826 72.0018 29.945Z" fill="white"/>
<path d="M61.684 19.613L62.1702 21.1685L63.8368 21.2213L65.5034 21.2741L64.2581 22.1713C63.5731 22.6648 62.9724 23.0951 62.9231 23.1276C62.8739 23.1602 63.065 23.9073 63.3477 24.7878C63.6305 25.6685 63.8087 26.3571 63.7437 26.3181C63.6788 26.2792 63.0908 25.8527 62.4372 25.3704C61.7836 24.8881 61.2004 24.4936 61.1413 24.4936C61.0822 24.4936 60.4544 24.9183 59.7461 25.4374C59.0379 25.9566 58.4478 26.3707 58.4349 26.3577C58.4218 26.3447 58.645 25.6258 58.9308 24.7601C59.2165 23.8944 59.4398 23.1786 59.4268 23.1694C59.4138 23.1604 58.7937 22.7183 58.0488 22.1871L56.6944 21.2213H58.39H60.0856L60.5851 19.6379C60.8599 18.7671 61.1102 18.0552 61.1412 18.0561C61.1723 18.0568 61.4165 18.7575 61.684 19.613Z" fill="white"/>
<path d="M47.5308 15.871L48.009 17.3685L49.6798 17.4213L51.3505 17.474L50.0989 18.3608C49.4104 18.8485 48.8072 19.2826 48.7583 19.3257C48.7096 19.3687 48.8877 20.071 49.1542 20.8866C49.4207 21.7021 49.6388 22.4187 49.6388 22.4791C49.6388 22.5395 49.2706 22.3149 48.8207 21.98C47.3917 20.9167 47.0665 20.6934 46.9526 20.6975C46.8915 20.6997 46.2714 21.1229 45.5747 21.6379C44.878 22.153 44.2978 22.5645 44.2853 22.5525C44.2729 22.5404 44.4734 21.8916 44.7311 21.1107C44.9889 20.3297 45.201 19.6098 45.2024 19.5109C45.2042 19.3997 44.6955 18.9666 43.8696 18.3761L42.534 17.4213H44.2227H45.9115L46.4222 15.8396C46.7031 14.9697 46.9598 14.284 46.9927 14.3158C47.0257 14.3475 47.2678 15.0474 47.5308 15.871Z" fill="white"/>
<path d="M33.4055 19.6907L33.8698 21.1685L35.5376 21.2213L37.2054 21.2741L35.9591 22.1713C35.2737 22.6648 34.6689 23.0987 34.615 23.1357C34.5599 23.1736 34.7499 23.8993 35.0509 24.7999C35.3444 25.6782 35.5283 26.3624 35.4599 26.3204C35.3914 26.2783 34.7954 25.8501 34.1356 25.3687C33.4757 24.8874 32.8932 24.4936 32.8412 24.4936C32.7892 24.4936 32.1653 24.9169 31.4548 25.4344C30.7442 25.9518 30.1516 26.364 30.1378 26.3504C30.1239 26.3368 30.349 25.6199 30.6379 24.7574C30.9269 23.8949 31.152 23.1819 31.1381 23.1728C31.1243 23.1637 30.5028 22.7209 29.757 22.1888L28.4011 21.2213H30.0956H31.7899L32.2886 19.6359C32.5629 18.7639 32.822 18.0871 32.8643 18.1318C32.9066 18.1764 33.1502 18.8779 33.4055 19.6907Z" fill="white"/>
<path d="M23.0421 30.0145L23.5216 31.5131L25.2449 31.5421L26.9682 31.5712L25.6099 32.5358C24.8627 33.0664 24.2345 33.5137 24.2138 33.5296C24.1932 33.5457 24.4151 34.2742 24.7072 35.1484C24.9994 36.0228 25.2173 36.7381 25.1914 36.7381C25.1656 36.7381 24.5942 36.331 23.9217 35.8333C23.249 35.3357 22.6407 34.9062 22.5696 34.879C22.4986 34.8517 21.8979 35.2261 21.2347 35.7111C20.5717 36.1959 19.9741 36.6254 19.907 36.6656C19.7996 36.7297 20.2106 35.2746 20.6578 34.007L20.8136 33.5651L20.1195 33.0669C19.7377 32.7928 19.1112 32.3431 18.7272 32.0672L18.0293 31.5659H19.7399H21.4505L21.9488 29.9864C22.2229 29.1177 22.4732 28.4315 22.5048 28.4614C22.5366 28.4914 22.7783 29.1903 23.0421 30.0145Z" fill="white"/>
<path d="M19.2543 44.1027L19.7461 45.6577L21.4071 45.7104L23.0681 45.7632L21.8228 46.6605C21.1378 47.1539 20.5371 47.5843 20.4878 47.6168C20.4386 47.6493 20.6296 48.3964 20.9124 49.277C21.1952 50.1577 21.3734 50.8462 21.3084 50.8073C21.2435 50.7683 20.6555 50.3419 20.0019 49.8596C19.3482 49.3773 18.7651 48.9827 18.706 48.9827C18.6469 48.9827 18.0191 49.4075 17.3108 49.9266C16.6026 50.4457 16.014 50.8614 16.0029 50.8502C15.9917 50.839 16.2146 50.1198 16.4981 49.2519C16.7817 48.3839 17.0032 47.6674 16.9907 47.6597C16.9781 47.6518 16.3577 47.2101 15.6119 46.678L14.256 45.7104H15.9531H17.6503L18.1498 44.1271C18.4246 43.2563 18.6749 42.5447 18.7059 42.5458C18.7369 42.5469 18.9837 43.2475 19.2543 44.1027Z" fill="white"/>
<path d="M23.0421 58.3037L23.5216 59.8023L25.2449 59.8313L26.9682 59.8604L25.6099 60.825C24.8627 61.3556 24.2345 61.8029 24.2138 61.8188C24.1932 61.8349 24.4151 62.5634 24.7072 63.4376C24.9994 64.312 25.2187 65.0273 25.1945 65.0273C25.1703 65.0273 24.6017 64.6213 23.9309 64.1249C23.2601 63.6286 22.647 63.1979 22.5684 63.1677C22.4897 63.1375 21.8862 63.5107 21.2273 63.997C20.5683 64.4832 19.9734 64.9145 19.9054 64.9553C19.7826 65.029 20.0147 64.1874 20.5486 62.6218L20.811 61.8524L20.1182 61.3551L18.7272 60.3564L18.0293 59.855H19.7399H21.4505L21.9488 58.2756C22.2229 57.4069 22.4732 56.7206 22.5048 56.7506C22.5366 56.7806 22.7783 57.4795 23.0421 58.3037Z" fill="white"/>
<path d="M35.5891 70.1996L37.2963 70.2524L35.928 71.2269L34.5596 72.2014L34.8121 73.0213C34.951 73.4723 35.1821 74.1857 35.3257 74.6066C35.4692 75.0275 35.5653 75.3719 35.539 75.3719C35.5128 75.3719 35.0525 75.0494 34.5161 74.6554C33.9798 74.2612 33.386 73.8301 33.1966 73.6973L32.8525 73.4559L31.5348 74.4139C30.8101 74.9408 30.1965 75.3719 30.1712 75.3719C30.1458 75.3719 30.3581 74.6767 30.6428 73.8269C30.9275 72.9771 31.1423 72.2528 31.1201 72.2171C31.0981 72.1815 30.4865 71.7249 29.761 71.2024L28.4422 70.2524L30.1428 70.1996L31.8433 70.1468L32.2867 68.7439C32.5304 67.9723 32.7619 67.2597 32.801 67.1605C32.8472 67.0434 33.049 67.5351 33.377 68.5635L33.882 70.1468L35.5891 70.1996Z" fill="white"/>
<path d="M37.0145 44.238C37.3242 44.3539 37.756 44.6218 37.9739 44.8335C38.3862 45.234 38.9214 46.2344 38.7892 46.3578C38.7475 46.3969 38.3702 46.4982 37.9509 46.5831L37.1885 46.7373L36.9916 46.3558C36.4121 45.2324 34.5902 45.1019 33.6722 46.118C33.1883 46.6537 33.0229 47.1709 33.0264 48.1383C33.03 49.1683 33.2025 49.7442 33.6588 50.2492C34.3701 51.0365 35.5317 51.1997 36.6122 50.6643C37.1246 50.4104 37.1302 50.4021 37.1618 49.8535L37.1938 49.2994H36.2381H35.2826V48.6133V47.9271H37.1325H38.9826L38.9535 49.5847L38.9244 51.2423L38.5022 51.5332C38.27 51.6931 37.7237 51.9566 37.2882 52.1187C36.601 52.3744 36.3502 52.4126 35.3882 52.4077C34.0476 52.4009 33.3418 52.1659 32.5652 51.4676C31.7045 50.6939 31.2786 49.5905 31.2738 48.1229C31.2673 46.0593 32.436 44.465 34.2353 44.0828C35.0976 43.8997 36.288 43.9662 37.0145 44.238Z" fill="#6579F4"/>
<path fill-rule="evenodd" clip-rule="evenodd" d="M45.0588 44.283C46.7561 44.787 47.7167 47.2194 47.1566 49.5949C46.964 50.4115 46.7825 50.7721 46.2885 51.3189C45.5152 52.1747 44.6483 52.3854 42.0912 52.3387L40.4023 52.3077L40.3746 48.2174L40.3471 44.1271H42.4403C43.9795 44.1271 44.6726 44.1684 45.0588 44.283ZM42.144 50.9014V48.1844V45.4675L43.1959 45.5315C44.6616 45.6208 45.1631 45.9307 45.4269 46.9104C45.6117 47.5966 45.5065 49.4781 45.2553 49.9786C44.8942 50.6984 44.6152 50.8249 43.2978 50.8656L42.144 50.9014Z" fill="#6579F4"/>
<path fill-rule="evenodd" clip-rule="evenodd" d="M53.3627 44.239C53.582 44.2999 53.9339 44.5011 54.1446 44.6861C54.701 45.1746 54.912 45.7163 54.9136 46.6605C54.9147 47.3475 54.8732 47.5248 54.5997 48.0015C54.3812 48.3826 54.1309 48.6412 53.7827 48.8459C53.3102 49.1236 53.1952 49.1432 51.8292 49.1776L50.3777 49.2141V50.7873V52.3605H49.5333H48.6888V48.2438V44.1271L50.8264 44.1277C52.002 44.128 53.1434 44.1781 53.3627 44.239ZM50.3777 47.8498V46.6591V45.4683L51.368 45.5274C52.597 45.6007 52.9625 45.7687 53.1333 46.3389C53.2306 46.6637 53.2291 46.8247 53.1268 47.072C52.9088 47.5982 52.5638 47.7445 51.4109 47.8L50.3777 47.8498Z" fill="#6579F4"/>
<path fill-rule="evenodd" clip-rule="evenodd" d="M61.4088 44.2436C62.6528 44.5834 63.2977 45.9605 62.8463 47.3132C62.6755 47.8249 61.9979 48.4252 61.4155 48.581L60.9491 48.7057L61.4366 49.1345C61.8573 49.5047 62.5732 50.5081 63.4557 51.9647L63.6956 52.3605H62.6886H61.6817L60.7363 50.9619C59.646 49.349 59.4158 49.1056 58.8592 48.9764C57.9208 48.7586 57.9781 48.6518 57.9781 50.6188V52.3605H57.1336H56.2891V48.2438V44.1271L58.6379 44.1277C60.0064 44.128 61.1628 44.1764 61.4088 44.2436ZM57.9781 47.6427V46.5602V45.4776L59.276 45.5149C60.2865 45.5439 60.636 45.5929 60.8545 45.736C61.3991 46.0931 61.3339 47.1258 60.7499 47.3918C60.5985 47.4608 59.9129 47.5454 59.2264 47.58L57.9781 47.6427Z" fill="#6579F4"/>
<path d="M33.6137 41.3677C34.0245 41.5327 34.5971 41.9142 34.8861 42.2155C35.4329 42.7857 36.1427 44.2101 35.9675 44.3858C35.9122 44.4414 35.4118 44.5857 34.8556 44.7065L33.8445 44.9261L33.5834 44.383C32.8148 42.7834 30.3985 42.5977 29.1809 44.0444C28.5391 44.8071 28.3197 45.5435 28.3243 46.9207C28.3292 48.3872 28.558 49.2072 29.1631 49.9262C30.1066 51.0472 31.6471 51.2795 33.0802 50.5173C33.7598 50.1557 33.7672 50.144 33.809 49.3629L33.8515 48.5739H32.584H31.3167V47.597V46.6202H33.7703H36.2239L36.1853 48.9801L36.1468 51.3401L35.5868 51.7543C35.2788 51.982 34.5543 52.3571 33.9768 52.588C33.0654 52.952 32.7327 53.0064 31.4567 52.9995C29.6789 52.9898 28.7427 52.6551 27.7127 51.661C26.5712 50.5594 26.0063 48.9884 26 46.8989C25.9914 43.9608 27.5413 41.6908 29.9278 41.1466C31.0713 40.886 32.6501 40.9807 33.6137 41.3677Z" fill="white"/>
<path fill-rule="evenodd" clip-rule="evenodd" d="M44.2826 41.4317C46.5337 42.1494 47.8077 45.6125 47.0648 48.9947C46.8095 50.1573 46.5687 50.6707 45.9136 51.4492C44.8879 52.6678 43.7382 52.9677 40.3468 52.9012L38.1068 52.8571L38.0701 47.0334L38.0336 41.2098H40.8098C42.8512 41.2098 43.7704 41.2685 44.2826 41.4317ZM40.4168 50.8548V46.9864V43.1181L41.812 43.2093C43.7559 43.3365 44.4209 43.7777 44.7708 45.1726C45.0159 46.1496 44.8763 48.8283 44.5433 49.541C44.0643 50.5658 43.6943 50.7459 41.9471 50.8039L40.4168 50.8548Z" fill="white"/>
<path fill-rule="evenodd" clip-rule="evenodd" d="M55.2958 41.3691C55.5867 41.4558 56.0533 41.7422 56.3328 42.0057C57.0707 42.7012 57.3506 43.4724 57.3527 44.8167C57.3542 45.7949 57.2992 46.0473 56.9365 46.726C56.6467 47.2686 56.3147 47.6369 55.8529 47.9283C55.2262 48.3237 55.0736 48.3515 53.262 48.4005L51.337 48.4525V50.6924V52.9323H50.217H49.0969V47.071V41.2098L51.932 41.2107C53.4912 41.2111 55.005 41.2823 55.2958 41.3691ZM51.337 46.51V44.8147V43.1193L52.6503 43.2035C54.2804 43.3078 54.7651 43.547 54.9916 44.3589C55.1207 44.8213 55.1187 45.0505 54.9829 45.4027C54.6938 46.1518 54.2363 46.3601 52.7072 46.4392L51.337 46.51Z" fill="white"/>
<path fill-rule="evenodd" clip-rule="evenodd" d="M65.9671 41.3757C67.6171 41.8595 68.4723 43.8201 67.8737 45.7461C67.6472 46.4745 66.7485 47.3292 65.976 47.551L65.3574 47.7287L66.004 48.3391C66.562 48.8662 67.5115 50.2949 68.6819 52.3687L69 52.9323H67.6645H66.329L65.0752 50.941C63.6291 48.6445 63.3239 48.298 62.5857 48.114C61.3411 47.804 61.4171 47.6519 61.4171 50.4525V52.9323H60.2971H59.1771V47.071V41.2098L62.2921 41.2107C64.1072 41.2111 65.6408 41.2799 65.9671 41.3757ZM61.4171 46.2151V44.6739V43.1326L63.1384 43.1856C64.4786 43.2269 64.9422 43.2967 65.232 43.5005C65.9543 44.0089 65.8677 45.4792 65.0932 45.8579C64.8925 45.9562 63.9832 46.0767 63.0726 46.1259L61.4171 46.2151Z" fill="white"/>
</svg>
