<svg xmlns="http://www.w3.org/2000/svg" width="44" height="44" fill="#000" fill-rule="nonzero"><path d="M9 38v4h4v-4H9zm2.667 2.667h-1.333v-1.333h1.333v1.333zM35.143 27v-3.857H39v-7.286h-3.857V12h-7.286v3.857H24v7.286h3.857V27h7.286zm-9.857-5.143v-4.714h3.857v-3.857h4.714v3.857h3.857v4.714h-3.857v3.857h-4.714v-3.857h-3.857zM21.698 35H1.302V12H0v28.8C0 42.56 1.46 44 3.255 44H6.43v-1.284H3.255c-1.077 0-1.953-.864-1.953-1.926v-4.494h20.396V40.8c0 1.062-.876 1.926-1.953 1.926H7.73V44h12.015C21.54 44 23 42.56 23 40.8v-7.105h-1.302v1.327zM1.302 6.75h20.396v1.215H23v-4.6C23 1.514 21.54 0 19.745 0h-16.5C1.46 0 0 1.514 0 3.375V11h1.302V6.75zm0-3.375c0-1.117.876-2.025 1.953-2.025h16.5c1.077 0 1.953.908 1.953 2.025V5.4H1.302V3.375zM18 19.02a12.99 12.99 0 0 0 .152 1.98l1.286-.193a11.67 11.67 0 0 1-.137-1.787c0-6.473 5.35-11.74 11.927-11.74 2.538 0 4.96.774 7.006 2.238L39 8.483A13.27 13.27 0 0 0 31.229 6C23.934 6 18 11.84 18 19.02zM39.95 11l1.05-.95A14.11 14.11 0 0 0 39.946 9L39 10.053a12.86 12.86 0 0 1 .95.947h0zm1.525 0l-1.035.764a11.78 11.78 0 0 1 2.276 6.995c0 6.523-5.278 11.83-11.766 11.83-1.556 0-3.068-.3-4.496-.895l-.195-.08-6.32 1.575 1.688-5.205-.193-.267a11.76 11.76 0 0 1-1.848-3.88l-1.24.335a13 13 0 0 0 1.86 4.034L18 33l8.16-2.034c1.525.605 3.135.912 4.8.912 7.196 0 13.05-5.886 13.05-13.12 0-2.814-.873-5.497-2.525-7.758h0zM7 3h1v1H7zm3 0h4v1h-4zm5 0h1v1h-1zM8 19h1v1H8zm2 0h5v1h-5zm2-4h4v1h-4zm-3 7h7v1H9zm-3 0h1v1H6zm-3 0h1v1H3z"/></svg>