<svg xmlns="http://www.w3.org/2000/svg" width="41" height="39" fill="#000" fill-rule="nonzero"><path d="M10.83 34.276c0 1.29.89 2.337 1.99 2.337h5.305c1.1 0 1.99-1.046 1.99-2.337s-.89-2.337-1.99-2.337H12.82c-1.1 0-1.99 1.046-1.99 2.337zm7.957 0c0 .43-.297.78-.663.78H12.82c-.366 0-.663-.35-.663-.78s.297-.78.663-.78h5.305c.366 0 .663.35.663.78z"/><circle cx="7.736" cy="4.674" r="1"/><circle cx="10.057" cy="4.674" r="1"/><circle cx="13.151" cy="4.674" r="1"/><path d="M4.56 21.033c.382 0 .7-.302.7-.674V3.372c0-1.117.928-2.023 2.074-2.023h17.972c.5-.003 1 .177 1.382.506.183.172.448.232.7.156a.68.68 0 0 0 .468-.519c.046-.244-.048-.493-.246-.648a3.51 3.51 0 0 0-2.295-.843H7.324c-1.9 0-3.456 1.5-3.456 3.372V20.36c0 .372.3.674.7.674zm22.622 11.685c-.37 0-.667.295-.667.66v2.28a1.99 1.99 0 0 1-2.002 1.976H7.162c-.947.001-1.766-.653-1.962-1.568a.66.66 0 0 0-.424-.564.67.67 0 0 0-.698.134c-.188.174-.257.438-.18.68.317 1.53 1.68 2.632 3.263 2.635h17.35c1.843 0 3.337-1.475 3.337-3.294v-2.28c0-.364-.3-.66-.667-.66z"/><circle cx="27.849" cy="14.022" r="1"/><path d="M40.75 28.817l-5.33-4.526-.914-2.824a.71.71 0 0 0-.165-.275L29.485 16.2a2.02 2.02 0 0 0-2.912 0c-.185.2-.334.412-.44.657a2.01 2.01 0 0 0-2.005-.02 2.11 2.11 0 0 0-1.072 1.742c-.518.015-1 .235-1.374.614-.165.17-.302.37-.405.586l-1.504-1.56a2.03 2.03 0 0 0-2.929.018c-.804.836-.797 2.185.017 3.012l4.12 4.237h-1.278c-1.138 0-2.06.948-2.06 2.118s.923 2.118 2.06 2.118h5.385l.508.53a.73.73 0 0 0 .268.17l2.747.932 5.893 7.343a.68.68 0 0 0 .969.092.71.71 0 0 0 .246-.48.72.72 0 0 0-.156-.517l-6.038-7.54c-.08-.103-.187-.18-.3-.22l-2.747-.946-.584-.62a.68.68 0 0 0-.488-.205h-5.694c-.38 0-.687-.316-.687-.706s.308-.706.687-.706h2.92c.277-.001.527-.174.632-.438a.72.72 0 0 0-.117-.77l-5.282-5.423c-.13-.133-.203-.313-.203-.5a.71.71 0 0 1 .203-.5c.268-.274.7-.274.968 0L23.68 24.2a.68.68 0 0 0 .488.212c.28.002.53-.17.638-.435a.72.72 0 0 0-.151-.772l-1.97-1.956c-.13-.133-.2-.314-.2-.5s.072-.363.2-.494c.268-.274.7-.274.968 0l1.937 2a.68.68 0 0 0 .488.212c.28.005.535-.166.644-.432a.72.72 0 0 0-.149-.775l-1.943-2a.72.72 0 0 1 .036-.959c.254-.26.66-.277.932-.037l.975.96.968 1.003a.68.68 0 0 0 .488.21c.183 0 .36-.075.488-.2a.73.73 0 0 0 .203-.5.71.71 0 0 0-.203-.5l-.975-.996c-.13-.133-.203-.313-.203-.5a.71.71 0 0 1 .203-.5c.13-.13.305-.2.488-.2s.36.075.488.2l4.74 4.88.92 2.824a.75.75 0 0 0 .213.318l5.495 4.653a.67.67 0 0 0 .503.16.68.68 0 0 0 .466-.252.72.72 0 0 0-.103-.981h0zm-23.73-11.94V14.28c0-.36-.3-.65-.645-.65h-1.3v-1.298c0-.36-.3-.65-.645-.65h-2.58c-.356 0-.645.3-.645.65v1.298h-1.3c-.356 0-.645.3-.645.65v2.597c0 .36.3.65.645.65h1.3v1.298c0 .36.3.65.645.65h2.58c.356 0 .645-.3.645-.65v-1.298h1.3c.356 0 .645-.3.645-.65zm-1.3-.65h-1.3c-.356 0-.645.3-.645.65v1.298h-1.3v-1.298c0-.36-.3-.65-.645-.65h-1.3V14.93h1.3c.356 0 .645-.3.645-.65v-1.298h1.3v1.298c0 .36.3.65.645.65h1.3v1.298zm4.46-.025a.7.7 0 0 0 .696-.701v-5.6c0-1.162-.935-2.103-2.1-2.103H9.05c-1.154 0-2.1.942-2.1 2.103v9.815c0 1.162.935 2.103 2.1 2.103h5.793a.701.701 0 1 0 0-1.402H9.05a.7.7 0 0 1-.696-.701V9.893a.7.7 0 0 1 .696-.701h9.747a.7.7 0 0 1 .696.701v5.6a.7.7 0 0 0 .696.701zm1.47-10.896V8.96c0 .93.55 1.757 1.375 2.067v3.045c0 .403.308.73.688.73a.67.67 0 0 0 .495-.219l3.136-3.432h4.62c1.14 0 2.063-.98 2.063-2.2V5.307c0-1.2-.924-2.2-2.063-2.2h-8.252c-1.14 0-2.063.98-2.063 2.2zm11.002 0V8.96c0 .403-.308.73-.688.73h-4.9a.67.67 0 0 0-.495.219l-2.16 2.366V10.42c0-.403-.308-.73-.688-.73s-.688-.327-.688-.73V5.307c0-.403.308-.73.688-.73h8.252c.38 0 .688.327.688.73zM24.755 8.57h3.094a.78.78 0 0 0 .774-.78c0-.43-.346-.78-.774-.78h-3.094a.78.78 0 0 0-.774.78c0 .43.346.78.774.78z"/><circle cx="30.17" cy="7.79" r="1"/><path d="M7.736 28.38c-.002-.238-.126-.458-.325-.58l-3.315-1.997c-.205-.125-.46-.127-.666-.006s-.335.347-.335.592v4.1c0 .246.13.473.338.593a.65.65 0 0 0 .325.089.65.65 0 0 0 .345-.102l3.315-2.093a.68.68 0 0 0 .318-.586h0zm-3.315.88v-1.68l1.366.852-1.366.825zm6.41-.826c0-3.227-2.424-5.842-5.415-5.842S0 25.207 0 28.434s2.424 5.843 5.415 5.843c1.436 0 2.814-.616 3.83-1.7s1.586-2.582 1.586-4.13zm-9.476 0c0-1.772 1-3.37 2.507-4.048s3.264-.303 4.426.95 1.5 3.138.88 4.775-2.1 2.705-3.752 2.705c-2.243 0-4.06-1.962-4.06-4.382h0z"/></svg>