<svg xmlns="http://www.w3.org/2000/svg" xmlns:xlink="http://www.w3.org/1999/xlink" width="45" height="40"><g fill="#000" fill-rule="nonzero"><path d="M42.932 0H2.068C.928 0 0 .9 0 2.03v27.648c0 1.12.928 2.03 2.068 2.03h14.84v4.236h-2.864c-.752 0-1.364.6-1.364 1.338v1.382c0 .738.612 1.338 1.364 1.338h16.9c.752 0 1.364-.6 1.364-1.338V37.28c0-.738-.612-1.338-1.364-1.338H28.1v-4.236h14.84c1.14 0 2.068-.9 2.068-2.03V2.03C45 .9 44.072 0 42.932 0zM30.955 37.235c.025 0 .045.02.045.045v1.382c0 .024-.02.044-.045.044h-16.9c-.025 0-.045-.02-.045-.044V37.28c0-.025.02-.045.045-.045h9.16c.364 0 .66-.3.66-.647s-.295-.647-.66-.647h-4.977v-4.236h8.545v4.236h-.75c-.364 0-.66.3-.66.647s.295.647.66.647h4.932zm12.727-7.56h0c0 .406-.336.736-.75.736H2.068c-.414 0-.75-.33-.75-.736V2.03c0-.406.336-.736.75-.736h40.864c.414 0 .75.33.75.736v27.648zM41.347 3H3.653C3.292 3 3 3.288 3 3.642v24.715c0 .355.292.642.653.642h37.694a.65.65 0 0 0 .653-.642V3.642c0-.355-.292-.642-.653-.642zM15.475 7.03h7.768V8.5h-7.768V7.03zM14.17 27.715H4.306V7.03h9.862v20.685zm0-21.97H4.306v-1.46h9.862v1.46zm26.525 21.97h-25.22V9.777h25.22v17.938zM24.55 8.492V7.03h7.07V8.5h-7.07zm16.145-2.746h-2.14a.65.65 0 0 0-.653.642c0 .354.292.642.653.642h2.14V8.5h-7.768V7.03h2.837a.65.65 0 0 0 .653-.642c0-.354-.292-.642-.653-.642h-20.29v-1.46h25.22v1.462zM6.348 8H5.65c-.36 0-.65.224-.65.5s.292.5.652.5h.697c.36 0 .65-.224.65-.5S6.708 8 6.348 8zm5.884 0H9.768C9.344 8 9 8.224 9 8.5s.344.5.768.5h2.463c.424 0 .768-.224.768-.5s-.344-.5-.768-.5z"/><use xlink:href="#B"/><use xlink:href="#C"/><use xlink:href="#B" y="3"/><use xlink:href="#C" y="3"/><use xlink:href="#B" y="5"/><use xlink:href="#C" y="5"/><use xlink:href="#B" y="8"/><use xlink:href="#C" y="8"/><path d="M38.397 15h-.58c-.254 0-.48.167-.567.417l-1.75 5.1-1.75-5.1c-.086-.25-.313-.417-.567-.417h-.58c-.333 0-.602.282-.602.63v6.74c0 .348.27.63.602.63s.602-.282.602-.63v-4.8l1.7 4.94a.62.62 0 0 0 .103.233c.116.173.303.268.493.268a.58.58 0 0 0 .277-.071.62.62 0 0 0 .29-.35l1.727-5.02v4.8c0 .348.27.63.602.63s.602-.282.602-.63v-6.74c0-.348-.27-.63-.603-.63zm-10.12 5.134c1.006-.38 1.724-1.348 1.724-2.48A2.66 2.66 0 0 0 27.338 15h-2.705a.63.63 0 0 0-.633.63v6.74a.633.633 0 1 0 1.266 0v-2.065h1.68l1.178 2.347c.1.22.334.35.566.35a.63.63 0 0 0 .565-.913l-.98-1.954zm-.938-1.1h-2.073V16.26h2.073c.77 0 1.396.624 1.396 1.4s-.626 1.4-1.396 1.4zm-4.552 1.95c-.262-.23-.662-.205-.893.056a2.08 2.08 0 0 1-1.555.7 2.07 2.07 0 0 1-2.072-2.065v-1.348a2.07 2.07 0 0 1 2.072-2.065 2.08 2.08 0 0 1 1.555.7c.23.26.63.286.893.056a.63.63 0 0 0 .056-.89A3.34 3.34 0 0 0 20.338 15C18.497 15 17 16.492 17 18.326v1.348C17 21.508 18.497 23 20.338 23c.957 0 1.87-.4 2.504-1.126a.63.63 0 0 0-.056-.89z"/></g><defs ><path id="B" d="M6.348 11h-.697c-.36 0-.652.224-.652.5s.292.5.652.5h.697c.36 0 .652-.224.652-.5s-.292-.5-.652-.5z"/><path id="C" d="M12.232 11H9.768c-.424 0-.768.224-.768.5s.344.5.768.5h2.463c.424 0 .768-.224.768-.5s-.344-.5-.768-.5z"/></defs></svg>