<svg width="86" height="91" viewBox="0 0 86 91" fill="none" xmlns="http://www.w3.org/2000/svg">
<path d="M4.44013 12C4.44013 12 18.4894 4.5 42.7123 4.5C66.9352 4.5 81.4689 12.5 81.4689 12.5C81.4689 12.5 82.6199 41.5582 75.6554 58C68.4544 75 56.4546 85 42.7123 85.5C27.9546 84.5 17.4545 73.5 10.2536 57.5C2.92538 41.217 4.44013 12 4.44013 12Z" fill="#6579F4"/>
<mask id="path-2-outside-1_38_3664" maskUnits="userSpaceOnUse" x="0.00146484" y="0" width="86" height="91" fill="black">
<rect fill="white" x="0.00146484" width="86" height="91"/>
<path d="M2.13905 9.96296C2.13905 9.96296 17.0555 2 42.7737 2C68.4919 2 83.9227 10.4938 83.9227 10.4938C83.9227 10.4938 85.1448 41.3457 77.7503 58.8025C70.1049 76.8519 57.3643 87.4691 42.7737 88C27.105 86.9383 15.9568 75.2593 8.3114 58.2716C0.530798 40.9835 2.13905 9.96296 2.13905 9.96296Z"/>
</mask>
<path d="M2.13905 9.96296L1.19718 8.19863L0.200241 8.73083L0.14173 9.85941L2.13905 9.96296ZM8.3114 58.2716L10.1352 57.4508L8.3114 58.2716ZM42.7737 88L42.6385 89.9954L42.7424 90.0025L42.8464 89.9987L42.7737 88ZM83.9227 10.4938L85.9211 10.4147L85.8764 9.28628L84.8871 8.74172L83.9227 10.4938ZM77.7503 58.8025L75.9087 58.0224L77.7503 58.8025ZM2.13905 9.96296C3.08092 11.7273 3.08036 11.7276 3.07985 11.7279C3.07976 11.7279 3.07931 11.7282 3.07913 11.7283C3.07876 11.7285 3.07861 11.7285 3.07869 11.7285C3.07885 11.7284 3.07992 11.7278 3.08189 11.7268C3.08582 11.7247 3.09336 11.7208 3.10448 11.715C3.12673 11.7034 3.16333 11.6846 3.21416 11.6589C3.31581 11.6076 3.47435 11.5291 3.68878 11.4271C4.11765 11.2233 4.76996 10.926 5.63769 10.5662C7.37326 9.84651 9.96976 8.8769 13.3632 7.90403C20.1497 5.95843 30.1224 4 42.7737 4V0C29.7068 0 19.3622 2.02305 12.2609 4.05893C8.71045 5.0768 5.97046 6.09794 4.10549 6.87129C3.17296 7.25799 2.459 7.58283 1.97166 7.81446C1.72799 7.93028 1.54094 8.02281 1.41153 8.08814C1.34683 8.1208 1.29653 8.14667 1.26076 8.16525C1.24288 8.17453 1.22863 8.182 1.21803 8.18758C1.21273 8.19038 1.20834 8.1927 1.20486 8.19454C1.20312 8.19546 1.20161 8.19626 1.20033 8.19694C1.19969 8.19729 1.1989 8.19771 1.19858 8.19788C1.19785 8.19827 1.19718 8.19863 2.13905 9.96296ZM2.13905 9.96296C0.14173 9.85941 0.14171 9.8598 0.141684 9.86031C0.141667 9.86064 0.141634 9.86127 0.141601 9.86192C0.141534 9.86323 0.141443 9.86501 0.141328 9.86726C0.1411 9.87176 0.140779 9.87813 0.140371 9.88636C0.139554 9.90283 0.138387 9.92671 0.136912 9.95784C0.133963 10.0201 0.129781 10.1114 0.124706 10.2303C0.114555 10.468 0.100822 10.8164 0.0862035 11.2644C0.0569696 12.1603 0.0241737 13.4553 0.00941491 15.0617C-0.0200884 18.2728 0.0224018 22.7364 0.3108 27.7491C0.883383 37.7012 2.43724 50.0927 6.48759 59.0924L10.1352 57.4508C6.40496 49.1624 4.87264 37.3995 4.3042 27.5194C4.02208 22.6159 3.98035 18.2439 4.00925 15.0984C4.02369 13.5265 4.05575 12.2629 4.08408 11.3949C4.09824 10.9609 4.11146 10.6259 4.12107 10.4009C4.12587 10.2883 4.12977 10.2033 4.13243 10.1471C4.13376 10.119 4.13478 10.0982 4.13545 10.0847C4.13579 10.0779 4.13603 10.073 4.13619 10.07C4.13627 10.0685 4.13632 10.0674 4.13635 10.0668C4.13636 10.0665 4.13637 10.0665 4.13637 10.0663C4.13637 10.0664 4.13637 10.0665 2.13905 9.96296ZM6.48759 59.0924C14.2535 76.348 25.8764 88.8596 42.6385 89.9954L42.9089 86.0046C28.3337 85.0169 17.66 74.1705 10.1352 57.4508L6.48759 59.0924ZM83.9227 10.4938C84.8871 8.74172 84.8864 8.74136 84.8857 8.74096C84.8854 8.74079 84.8846 8.74036 84.884 8.74001C84.8827 8.73931 84.8812 8.73848 84.8794 8.73752C84.876 8.73561 84.8715 8.73319 84.8661 8.73026C84.8553 8.72441 84.8408 8.71655 84.8225 8.70674C84.7859 8.68712 84.7343 8.65973 84.6679 8.62508C84.535 8.55577 84.3426 8.45743 84.0922 8.33422C83.5912 8.08781 82.8575 7.74187 81.901 7.32985C79.9883 6.50588 77.1836 5.41705 73.5676 4.33139C66.3357 2.16006 55.854 0 42.7737 0V4C55.4116 4 65.5044 6.08686 72.4174 8.16244C75.8739 9.20023 78.5343 10.2349 80.3185 11.0035C81.2105 11.3878 81.8832 11.7054 82.3266 11.9235C82.5483 12.0325 82.7126 12.1167 82.8183 12.1718C82.8712 12.1994 82.9094 12.2197 82.9327 12.2322C82.9444 12.2384 82.9524 12.2428 82.9567 12.2451C82.9588 12.2462 82.96 12.2469 82.9602 12.247C82.9604 12.2471 82.9603 12.2471 82.9599 12.2469C82.9598 12.2468 82.9593 12.2465 82.9593 12.2465C82.9588 12.2462 82.9582 12.2459 83.9227 10.4938ZM83.9227 10.4938C81.9242 10.573 81.9242 10.5728 81.9242 10.5728C81.9242 10.573 81.9242 10.5731 81.9243 10.5734C81.9243 10.574 81.9243 10.575 81.9244 10.5766C81.9245 10.5796 81.9247 10.5845 81.9249 10.5913C81.9254 10.6048 81.9262 10.6256 81.9272 10.6537C81.9292 10.7097 81.9321 10.7945 81.9356 10.9066C81.9425 11.1309 81.9519 11.4645 81.9612 11.8968C81.9799 12.7615 81.9986 14.0201 81.9981 15.5866C81.9971 18.721 81.9195 23.0803 81.6133 27.977C80.9967 37.8377 79.4655 49.6256 75.9087 58.0224L79.5919 59.5825C83.4296 50.5226 84.9846 38.1562 85.6055 28.2267C85.9181 23.2283 85.9971 18.7837 85.9981 15.5878C85.9986 13.9892 85.9795 12.7011 85.9603 11.8104C85.9506 11.3649 85.941 11.0187 85.9336 10.7825C85.93 10.6644 85.9269 10.5738 85.9247 10.5121C85.9236 10.4812 85.9227 10.4575 85.9221 10.4412C85.9218 10.4331 85.9216 10.4268 85.9214 10.4223C85.9213 10.4201 85.9212 10.4184 85.9212 10.4171C85.9212 10.4165 85.9212 10.4159 85.9211 10.4155C85.9211 10.415 85.9211 10.4147 83.9227 10.4938ZM75.9087 58.0224C68.4446 75.6437 56.2458 85.5085 42.701 86.0013L42.8464 89.9987C58.4828 89.4298 71.7651 78.06 79.5919 59.5825L75.9087 58.0224Z" fill="#6579F4" mask="url(#path-2-outside-1_38_3664)"/>
<path fill-rule="evenodd" clip-rule="evenodd" d="M28.2293 22.2136C27.37 22.3087 24.206 22.7303 21.1983 23.1505C18.1906 23.5704 14.6851 24.0025 13.4084 24.1104C12.1317 24.2185 11.0604 24.3332 11.0278 24.3654C10.8392 24.5529 11.7051 25.7859 12.2971 26.1725C14.3869 27.5373 17.2756 27.3451 25.6386 25.2857C28.3629 24.615 31.0003 24.0797 31.8424 24.0269L33.3072 23.9351L31.8424 24.4186C31.0368 24.6843 26.8182 25.7894 22.4678 26.8741C18.1174 27.9588 14.5242 28.873 14.4828 28.9052C14.2923 29.0546 14.9445 30.1586 15.4077 30.4712C15.8065 30.7404 16.2829 30.8161 17.4875 30.8017C19.4984 30.7779 21.0507 30.2775 26.7645 27.8121C31.3928 25.8152 33.0535 25.2021 33.4545 25.3424C33.7758 25.4548 29.9552 27.2726 23.9814 29.8496C21.3227 30.9966 19.1476 32.0025 19.1476 32.0854C19.1476 32.4249 20.5546 33.4304 21.1975 33.5501C22.9951 33.8853 25.0974 32.8223 30.3777 28.9089C32.4729 27.356 33.9084 26.5011 34.1004 26.6919C34.247 26.8376 27.7936 31.8727 24.3545 34.2958L23.9326 34.5929L24.4806 35.0842C25.7827 36.2514 27.5391 35.4403 30.4034 32.3496C35.3767 26.9834 35.8718 26.7177 32.0686 31.456C29.3005 34.9046 28.1316 36.4662 28.1316 36.7162C28.1316 37.1428 29.3089 37.1601 30.1697 36.7459C31.4942 36.1087 32.7291 34.4105 34.655 30.5778C35.1513 29.5903 35.5892 28.7825 35.6282 28.7825C35.6673 28.7825 36.1056 29.008 36.602 29.2838C38.0531 30.0899 40.0581 29.8465 40.6241 28.7957C40.7976 28.4735 40.7403 28.4072 40.1904 28.2917C39.1662 28.0766 37.6647 27.1786 37.2791 26.5506C37.043 26.1657 36.9215 25.5912 36.9211 24.8555C36.9202 23.3422 36.3223 22.6548 34.6718 22.2691C33.3861 21.9685 30.653 21.945 28.2293 22.2136ZM52.3729 22.1993C50.6323 22.5391 50.0204 23.2153 50.012 24.8091C50.0058 25.9687 49.7437 26.6086 49.0383 27.1858C48.5178 27.6114 47.3024 28.2001 46.9376 28.2032C46.7452 28.2049 46.4561 28.2934 46.295 28.4002C46.0495 28.5628 46.1052 28.688 46.6399 29.1736C47.5377 29.9891 48.9992 30.0202 50.3335 29.2522C50.7823 28.9939 51.1991 28.7825 51.2597 28.7825C51.3202 28.7825 51.8647 29.765 52.4698 30.9659C53.6998 33.4075 54.9865 35.4564 55.6935 36.0998C56.3966 36.7397 57.5733 37.1698 58.2289 37.0265C58.54 36.9586 58.7945 36.8303 58.7945 36.7412C58.7945 36.5299 57.0379 34.2046 54.3283 30.8291C51.3817 27.1586 51.3964 26.6761 54.3521 30.0441C58.1371 34.3571 59.8828 35.7157 61.3821 35.5158C61.8165 35.458 62.3545 35.2293 62.5774 35.0077L62.9828 34.605L62.4998 34.2698C59.2402 32.0074 52.666 26.8504 52.8319 26.6859C53.0219 26.497 54.6919 27.5505 57.5973 29.692C63.0213 33.6897 65.5538 34.4652 67.2926 32.6616C67.5979 32.3451 67.8082 32.0468 67.76 31.9988C67.7118 31.9509 65.1695 30.8266 62.1104 29.5004C56.1849 26.9316 53.2207 25.5229 53.3889 25.3558C53.6037 25.1425 55.8579 25.9561 59.7494 27.652C67.7774 31.1505 70.5007 31.6557 71.9712 29.9193C72.2432 29.5979 72.4659 29.2324 72.4659 29.1068C72.4659 28.9683 69.3049 28.0914 64.4095 26.8722C59.9787 25.7684 55.738 24.6563 54.9861 24.4005L53.6189 23.9357L54.9861 24.0223C55.738 24.0698 58.5037 24.6338 61.1321 25.2758C67.0436 26.7194 69.4916 27.1171 71.6464 26.9838C73.6935 26.857 74.8367 26.3192 75.5228 25.16L76.0015 24.3516L74.673 24.233C72.0299 23.997 69.5478 23.6952 64.9466 23.0501C57.3346 21.9831 54.4722 21.7894 52.3729 22.1993ZM42.2848 22.7656C41.2583 23.2706 40.8265 24.019 40.8265 25.2933C40.8265 26.2218 40.8933 26.3712 41.6372 27.1072L42.4481 27.9092L42.543 33.6769L42.6379 39.4446L43.3076 39.6641C43.6762 39.785 44.0375 39.8242 44.1109 39.7515C44.1843 39.6787 44.274 36.9844 44.3101 33.7642L44.3757 27.9092L45.0154 27.3834C46.7003 25.9986 46.3718 23.48 44.397 22.6439C43.5564 22.288 43.2158 22.3076 42.2848 22.7656ZM37.2133 30.8924C36.7837 31.0874 36.0724 31.6365 35.6325 32.1126C33.4648 34.4588 33.7443 37.3972 36.3573 39.7317C37.7332 40.961 39.5714 41.7928 43.2678 42.8587C46.5112 43.7938 47.2715 44.1241 47.2715 44.5979C47.2715 44.9263 46.7922 45.2205 45.3185 45.7961C44.4318 46.1426 44.3125 46.241 44.6349 46.3599C44.8497 46.4391 45.562 46.7411 46.2177 47.0313C47.5418 47.6168 47.7032 47.5883 48.7814 46.5779C50.0429 45.3961 50.1011 43.8027 48.9201 42.7725C47.9613 41.9358 47.1764 41.5725 43.8596 40.4296C40.4614 39.2585 38.9586 38.5433 37.902 37.5948C36.9391 36.7304 36.6098 35.831 36.9172 34.9054C37.1805 34.1128 37.3377 34.0567 39.3056 34.0532C40.7925 34.0507 41.7969 33.7662 41.9481 33.3046C42.0665 32.9431 40.498 31.37 39.5771 30.9271C38.5683 30.4417 38.2174 30.4367 37.2133 30.8924ZM47.3254 30.9353C46.2606 31.4591 44.8849 32.7847 44.9669 33.2078C45.0712 33.7462 46.0206 34.0503 47.6205 34.0581C49.5482 34.0672 50.0058 34.3238 50.0058 35.3955C50.0058 36.9553 49.0281 37.9636 46.2622 39.2554C44.4396 40.1068 44.3658 39.9356 46.9391 40.8238L48.2666 41.282L48.9736 40.9037C50.1134 40.2937 51.4417 38.9914 52.0626 37.8749C52.5493 36.9996 52.6391 36.624 52.636 35.4783C52.6317 33.9519 52.3653 33.3075 51.2153 32.04C50.4845 31.2344 49.2539 30.5411 48.541 30.5337C48.3262 30.5314 47.7791 30.7121 47.3254 30.9353ZM40.1429 32.0819C40.1429 32.2391 39.9892 32.3971 39.8011 32.4332C39.5613 32.479 39.4593 32.3742 39.4593 32.0819C39.4593 31.7896 39.5613 31.6848 39.8011 31.7306C39.9892 31.7667 40.1429 31.9247 40.1429 32.0819ZM47.3692 32.0955C47.3692 32.2451 47.2155 32.3971 47.0274 32.4332C46.6907 32.4976 46.5516 32.0858 46.82 31.8191C47.0247 31.6157 47.3692 31.789 47.3692 32.0955ZM37.8219 42.9511C36.7493 44.1309 36.8895 45.4359 38.2213 46.6645C38.949 47.3358 39.4871 47.586 42.3211 48.5703C43.6267 49.0239 44.9669 49.5594 45.2995 49.7603C46.0893 50.2377 46.086 50.8044 45.2913 51.213L44.6781 51.5282L45.5319 51.908C46.0015 52.1168 46.5393 52.426 46.7272 52.595C47.0122 52.8512 47.1202 52.8599 47.3784 52.647C48.332 51.8604 48.5025 50.306 47.7709 49.0656C47.1889 48.0785 45.9558 47.3843 42.7928 46.2631C39.9411 45.2523 39.3785 44.7784 40.1917 44.0725C40.3798 43.9095 40.8849 43.6636 41.3145 43.5263L42.0954 43.2768L40.4445 42.7254C39.5363 42.4222 38.7338 42.1742 38.6609 42.1742C38.5879 42.1742 38.2104 42.5237 37.8219 42.9511ZM42.7795 44.5261C42.7795 45.5832 42.8205 45.6927 43.2805 45.8666C44.0904 46.1725 44.1467 46.1111 44.1467 44.9239C44.1467 43.7994 44.1422 43.7907 43.4631 43.5834L42.7795 43.375V44.5261ZM39.142 48.9688C38.7381 49.5755 38.6029 50.0161 38.6029 50.7276C38.6029 52.307 39.6253 53.0688 42.618 53.7195C43.4422 53.8989 44.2648 54.1533 44.4461 54.2851C44.755 54.5096 44.7546 54.5457 44.438 54.8603C44.2521 55.0451 44.1326 55.2175 44.1722 55.2435C44.9792 55.7737 45.9157 56.3422 45.9819 56.3422C46.2657 56.3422 46.8799 54.924 46.8747 54.2814C46.8639 52.9638 46.2286 52.4976 43.4797 51.7894C42.4147 51.515 41.4259 51.1937 41.2825 51.0754C40.803 50.6798 41.0009 50.1659 41.8196 49.6807L42.6174 49.2079L41.4778 48.8172C40.8511 48.6026 40.1904 48.3666 40.0097 48.293C39.7662 48.194 39.5414 48.3691 39.142 48.9688ZM42.7795 50.3049C42.7795 50.9917 42.8651 51.2871 43.0885 51.3723C43.8101 51.6475 43.9513 51.5117 43.9513 50.5424C43.9513 49.7236 43.8916 49.5786 43.5119 49.4775C42.8008 49.2881 42.7795 49.3121 42.7795 50.3049ZM40.0452 54.3008C40.0452 55.6274 40.5036 56.2191 42.2491 57.1459C44.148 58.1537 44.5689 58.708 44.1759 59.6827C43.8058 60.6001 43.8103 60.822 44.2037 61.0704C44.4923 61.2524 44.623 61.2061 44.949 60.806C45.5388 60.0823 46.0905 58.8398 46.0954 58.2248C46.1024 57.3232 45.604 56.6461 44.5039 56.0627C43.0014 55.2662 42.1936 54.6271 42.3096 54.3268C42.3787 54.1477 42.1778 54.0275 41.6673 53.9427C41.2585 53.8748 40.7265 53.7653 40.4847 53.6995C40.0863 53.5909 40.0452 53.6469 40.0452 54.3008ZM42.9748 54.3645C42.9748 54.7028 43.4646 54.9684 43.757 54.7889C44.083 54.5886 44.0189 54.5001 43.4143 54.3154C43.1725 54.2414 42.9748 54.2635 42.9748 54.3645ZM40.8993 57.4042C40.6782 57.9767 40.9813 59.2786 41.5475 60.1889C42.1868 61.2161 43.357 62.1025 44.3214 62.2898L44.9843 62.4185L44.0959 61.6045C43.0213 60.6203 42.5346 59.6685 42.619 58.7158C42.6774 58.0567 42.6213 57.9715 41.8514 57.5468C41.1151 57.1408 41.0071 57.1247 40.8993 57.4042ZM42.9777 58.9137C42.9795 59.2606 43.0674 59.6755 43.1731 59.8356C43.3441 60.0943 43.3867 60.0943 43.5578 59.8356C43.806 59.4597 43.8051 59.1247 43.5539 58.6583C43.2467 58.0881 42.9744 58.2088 42.9777 58.9137ZM42.1936 62.1646C41.9567 62.3168 41.9848 62.3533 42.3401 62.3558C42.5819 62.3573 42.7795 62.2714 42.7795 62.1646C42.7795 61.9214 42.5723 61.9214 42.1936 62.1646ZM43.1897 64.3319C43.2141 66.8606 43.4363 67.7984 43.6416 66.2403C43.8433 64.7104 43.7125 62.5045 43.4143 62.4064C43.2287 62.3455 43.1748 62.8074 43.1897 64.3319Z" fill="white"/>
</svg>
