<svg width="96" height="94" viewBox="0 0 96 94" fill="none" xmlns="http://www.w3.org/2000/svg">
<path fill-rule="evenodd" clip-rule="evenodd" d="M43.7756 0.14964C42.1528 0.286388 41.2284 0.756378 40.7505 1.68764C40.579 2.02181 40.202 3.73645 39.9127 5.49784C39.6234 7.25943 39.3477 8.7399 39.2999 8.78759C39.252 8.83546 38.3946 9.08725 37.3943 9.34701C34.0697 10.2109 30.0926 11.9103 27.0855 13.7523L26.0674 14.3759L23.2157 12.3384C20.6203 10.4839 20.2783 10.2942 19.4096 10.2256C18.5709 10.1595 18.3427 10.2254 17.5276 10.7687C16.2881 11.5949 12.0349 15.8428 11.3225 16.9659C10.901 17.6306 10.7549 18.0811 10.7549 18.716C10.7549 19.6944 11.0051 20.1403 13.3725 23.382L14.8978 25.4705L14.4689 26.2216C12.2176 30.1646 10.803 33.4616 9.86841 36.9438L9.35741 38.8479L5.96135 39.4243C2.44393 40.0212 1.99287 40.191 1.23825 41.2019C0.312927 42.4413 0.325173 51.0424 1.25402 52.2866C2.00233 53.2888 2.47269 53.4647 5.97341 54.0518L9.35815 54.6193L9.86878 56.5234C10.7856 59.9417 12.4182 63.7657 14.4047 67.1469L14.8971 67.985L13.1737 70.3815C10.8446 73.6205 10.7564 73.78 10.7557 74.7612C10.7551 75.3805 10.9023 75.8387 11.3066 76.476C12.0117 77.588 16.3113 81.8892 17.5274 82.6989C18.3425 83.2418 18.5711 83.3077 19.4096 83.2416C20.2783 83.173 20.6203 82.9833 23.2157 81.1288L26.0674 79.0913L27.0855 79.7149C30.0926 81.5568 34.0697 83.2563 37.3943 84.1202C38.3946 84.3799 39.252 84.6317 39.2999 84.6796C39.3477 84.7273 39.6234 86.2078 39.9127 87.9693C40.202 89.7307 40.579 91.4454 40.7505 91.7795C41.2501 92.7531 42.0554 93.1253 44.074 93.3164C46.1508 93.5129 46.7668 93.3176 47.1021 92.356C47.3617 91.6115 47.3871 79.0663 47.1305 78.391C46.8494 77.6516 46.2311 77.3885 44.2669 77.1724C40.3022 76.736 36.7471 75.693 33.4037 73.9856C24.9968 69.6924 19.2688 62.1485 17.22 52.6711C16.8555 50.9854 16.7988 50.1851 16.7988 46.7336C16.7988 43.2821 16.8555 42.4818 17.22 40.7961C18.1349 36.5641 19.9679 32.312 22.3143 28.9782C22.9471 28.0793 24.4667 26.3398 25.6913 25.1124C30.917 19.8749 37.3499 16.885 44.8622 16.2017C45.8946 16.1078 46.3399 15.9755 46.7176 15.6506L47.2149 15.2231L47.2722 8.57365C47.3107 4.12647 47.2622 1.69395 47.126 1.22934C46.9154 0.511085 46.1721 -0.0518642 45.5079 0.00379987C45.3242 0.0192003 44.5447 0.0848838 43.7756 0.14964ZM59.5946 3.79397C57.2558 4.95939 56.2896 7.72144 57.3923 10.0894C57.8258 11.0201 58.8424 12.0747 59.6694 12.4516L60.1104 12.6525V17.8302C60.1104 21.1843 60.0397 23.14 59.91 23.3825C59.4987 24.1511 58.7029 24.2824 54.4572 24.2824H50.462V25.8737V27.4649L55.147 27.4044C60.4557 27.336 60.6639 27.2862 62.0429 25.7597C63.2514 24.4221 63.264 24.3442 63.2708 18.2117L63.2771 12.6857L64.244 12.1291C66.0719 11.0769 66.9411 8.83583 66.3329 6.74398C65.5048 3.89546 62.2501 2.47046 59.5946 3.79397ZM75.7891 18.2304C74.6742 18.7576 73.9923 19.4502 73.4848 20.5715C72.9924 21.6593 72.974 23.528 73.4459 24.5607C73.8129 25.3642 75.2121 26.7602 75.8548 26.9643C76.2474 27.0888 76.253 27.1528 76.253 31.5455V36.0005L75.7106 36.5428L75.1683 37.0852H62.8151H50.462V38.6671V40.2493L63.3111 40.1979C77.724 40.1404 76.6386 40.2474 78.1031 38.7386C79.2975 37.5078 79.4073 36.9143 79.4073 31.6937V27.1107L79.9547 26.884C80.7625 26.5492 81.8187 25.4445 82.2389 24.4945C83.0173 22.7348 82.5417 20.3776 81.1409 19.0517C79.7775 17.7614 77.5158 17.4142 75.7891 18.2304ZM44.4317 22.7379C35.2607 23.8889 27.5323 30.0524 24.5079 38.6274C22.655 43.8804 22.655 49.5867 24.5079 54.8398C27.598 63.6009 35.5498 69.8082 44.9104 70.7662C46.0393 70.8818 46.1721 70.856 46.6731 70.4251L47.2149 69.9591V46.7336V23.5081L46.6943 23.0602C46.1822 22.6197 45.8035 22.5657 44.4317 22.7379ZM50.462 32.2665V33.9418L58.7968 33.89L67.1317 33.8381L67.6102 33.3883C68.0862 32.9412 68.2381 32.1234 67.9737 31.4343C67.665 30.6296 67.2376 30.591 58.6353 30.591H50.462V32.2665ZM89.4257 42.0715C88.1358 42.4948 86.6655 43.7468 86.3718 44.672L86.2475 45.0637H68.3548H50.462V46.7336V48.4035H68.3548H86.2475L86.3718 48.7952C86.5657 49.4058 87.7465 50.6158 88.5793 51.0567C89.1583 51.3634 89.658 51.4565 90.7257 51.4565C92.3067 51.4565 93.1975 51.0925 94.1839 50.0434C95.1777 48.9863 95.4497 48.2749 95.4497 46.7336C95.4497 45.7405 95.3519 45.1561 95.1079 44.6926C94.6266 43.7782 93.728 42.8696 92.8648 42.4252C92.0651 42.0131 90.1909 41.8205 89.4257 42.0715ZM50.462 54.8001V56.382H62.8151H75.1683L75.7106 56.9244L76.253 57.4667V61.9217C76.253 66.3144 76.2474 66.3784 75.8548 66.5029C75.2121 66.707 73.8129 68.103 73.4459 68.9064C73.2297 69.3798 73.1061 70.0854 73.1046 70.8547C73.0993 73.6615 75.0709 75.6707 77.8301 75.6707C80.5323 75.6707 82.608 73.6158 82.608 70.9406C82.608 69.0727 81.4758 67.2133 79.9547 66.5832L79.4073 66.3565V61.7735C79.4073 56.5529 79.2975 55.9594 78.1031 54.7286C76.6386 53.2198 77.724 53.3268 63.3111 53.2693L50.462 53.2179V54.8001ZM50.462 61.199V62.8762H58.6353C67.2376 62.8762 67.665 62.8376 67.9737 62.0329C68.2381 61.3437 68.0862 60.526 67.6102 60.0789L67.1317 59.6291L58.7968 59.5755L50.462 59.5219V61.199ZM50.462 67.6863V69.3703H54.8307H59.1996L59.6549 69.8258L60.1104 70.2812V75.5479V80.8147L59.6694 81.0156C58.8424 81.3924 57.8258 82.4471 57.3923 83.3778C55.8976 86.588 58.1943 90.1516 61.7583 90.1516C63.2462 90.1516 64.2416 89.7074 65.2812 88.5794C67.3024 86.3866 66.7892 82.8034 64.244 81.3381L63.2771 80.7814L63.2708 75.2555C63.264 69.123 63.2514 69.0451 62.0429 67.7074C60.6639 66.1809 60.4557 66.1312 55.147 66.0628L50.462 66.0023V67.6863Z" fill="#6579F4"/>
</svg>
