<svg width="94" height="94" viewBox="0 0 94 94" fill="none" xmlns="http://www.w3.org/2000/svg">
<circle cx="47" cy="47" r="42" fill="#6579F4"/>
<circle cx="47" cy="47" r="46" stroke="#6579F4" stroke-width="2"/>
<path d="M39.405 56C39.405 55.0877 39.405 54.2098 39.405 53.3665C39.405 52.5232 39.405 51.5955 39.405 50.5835V45.0865C39.405 44.0515 39.405 43.1085 39.405 42.2575C39.405 41.3988 39.405 40.5133 39.405 39.601H41.4865C41.4865 40.5133 41.4865 41.3988 41.4865 42.2575C41.4865 43.1085 41.4865 44.0515 41.4865 45.0865V50.5835C41.4865 51.5955 41.4865 52.5232 41.4865 53.3665C41.4865 54.2098 41.4865 55.0877 41.4865 56H39.405ZM28.503 56C28.503 55.0877 28.503 54.2098 28.503 53.3665C28.503 52.5232 28.503 51.5955 28.503 50.5835V45.0865C28.503 44.0515 28.503 43.1085 28.503 42.2575C28.503 41.3988 28.503 40.5133 28.503 39.601H30.5845C30.5845 40.5133 30.5845 41.3988 30.5845 42.2575C30.5845 43.1085 30.5845 44.0515 30.5845 45.0865V50.5835C30.5845 51.5955 30.5845 52.5232 30.5845 53.3665C30.5845 54.2098 30.5845 55.0877 30.5845 56H28.503ZM29.86 48.594V46.8H40.1985V48.594H29.86ZM45.7305 56C45.7305 55.0877 45.7305 54.2098 45.7305 53.3665C45.7305 52.5232 45.7305 51.5955 45.7305 50.5835V45.0865C45.7305 44.0515 45.7305 43.1085 45.7305 42.2575C45.7305 41.3988 45.7305 40.5133 45.7305 39.601H47.812C47.812 40.5133 47.812 41.3988 47.812 42.2575C47.812 43.1085 47.812 44.0515 47.812 45.0865V50.2615C47.812 51.2735 47.812 52.2012 47.812 53.0445C47.812 53.8878 47.812 54.7657 47.812 55.678L47.03 54.1485H50.043C50.917 54.1485 51.6875 54.1485 52.3545 54.1485C53.0292 54.1485 53.6502 54.1485 54.2175 54.1485C54.7925 54.1485 55.379 54.1485 55.977 54.1485V56H45.7305ZM58.9916 56C59.467 54.9573 59.9423 53.9185 60.4176 52.8835C60.9006 51.8408 61.3721 50.8135 61.8321 49.8015L64.0286 45.0175C64.3046 44.4348 64.5768 43.8522 64.8451 43.2695C65.1135 42.6868 65.378 42.1003 65.6386 41.51L66.0296 41.947H62.7981C61.8475 41.947 60.893 41.947 59.9346 41.947C58.9763 41.947 58.0141 41.947 57.0481 41.947V40.2335H67.7086V41.579C67.2793 42.522 66.8576 43.4497 66.4436 44.362C66.0296 45.2743 65.6041 46.2135 65.1671 47.1795L63.7066 50.388C63.2926 51.308 62.871 52.2395 62.4416 53.1825C62.0123 54.1178 61.5868 55.057 61.1651 56H58.9916Z" fill="white"/>
<path d="M47 83C66.8823 83 83 66.8823 83 47C83 45.1299 82.8574 43.2932 82.5825 41.5M78 28.6859C71.732 18.0989 60.195 11 47 11C38.9405 11 31.4995 13.6485 25.5 18.1225M34.5 80.7706C20.7795 75.6902 11 62.4871 11 47C11 39.8138 13.1056 33.1194 16.7335 27.5C17.1744 26.8171 17.6377 26.1501 18.1225 25.5" stroke="white" stroke-width="2"/>
<circle cx="77" cy="29" r="4" fill="white"/>
<circle cx="17" cy="29" r="4" fill="white"/>
<circle cx="48" cy="83" r="4" fill="white"/>
</svg>
