<svg xmlns="http://www.w3.org/2000/svg" width="27" height="44" fill="#000" fill-rule="nonzero"><path d="M24.285 0H2.715A2.71 2.71 0 0 0 0 2.696v27.82c0 .356.3.645.65.645s.65-.3.65-.645V6.35h24.404V9.9c0 .356.3.645.65.645s.65-.3.65-.645V2.696A2.71 2.71 0 0 0 24.285 0zM1.298 5.06V2.696c0-.776.636-1.407 1.417-1.407h21.57c.78 0 1.417.63 1.417 1.407V5.06H1.298zm25.052 7.217a.65.65 0 0 0-.65.645v24.655h-3.05a.65.65 0 0 0-.65.645c0 .355.3.645.65.645h3.05v2.438c0 .776-.636 1.407-1.417 1.407H2.715c-.78 0-1.417-.63-1.417-1.407v-2.438h18.337a.65.65 0 0 0 .65-.645c0-.355-.3-.645-.65-.645H1.298V33.53c0-.356-.3-.645-.65-.645s-.65.3-.65.645v7.775A2.71 2.71 0 0 0 2.715 44h21.57A2.71 2.71 0 0 0 27 41.304V12.922c0-.356-.3-.645-.65-.645zM11.332 2.53h-1.73a.65.65 0 0 0-.65.645c0 .355.3.645.65.645h1.73a.65.65 0 0 0 .65-.645c0-.355-.3-.645-.65-.645h0zm6.066 0h-3.462a.65.65 0 0 0-.65.645c0 .355.3.645.65.645h3.462a.65.65 0 0 0 .65-.645c0-.355-.3-.645-.65-.645h0zm-6.494 37.575a.65.65 0 0 0-.65.645c0 .355.3.645.65.645h5.192a.65.65 0 0 0 .65-.645c0-.355-.3-.645-.65-.645h-5.192zM8.236 24.54h2.652v2.632c0 .356.3.645.65.645h3.904a.65.65 0 0 0 .65-.645V24.54h2.673a.65.65 0 0 0 .65-.645V20.03c0-.356-.3-.645-.65-.645H16.1v-2.632c0-.356-.3-.645-.65-.645h-3.904a.65.65 0 0 0-.65.645v2.632h-2.65a.65.65 0 0 0-.65.645v3.863c0 .356.3.645.65.645zm.65-3.863h2.652a.65.65 0 0 0 .65-.645V17.4h2.606v2.632c0 .356.3.645.65.645h2.673v2.574H15.44a.65.65 0 0 0-.65.645v2.632h-2.606v-2.632c0-.356-.3-.645-.65-.645h-2.65v-2.574zm11.938 11.055c1.365 0 2.476-1.103 2.476-2.46V14.727c0-1.356-1.1-2.46-2.476-2.46H6.176c-1.365 0-2.476 1.103-2.476 2.46v14.546c0 1.356 1.1 2.46 2.476 2.46h14.647zm-15.826-2.46V14.727c0-.645.53-1.17 1.178-1.17h14.647c.65 0 1.178.525 1.178 1.17v14.546c0 .645-.53 1.17-1.178 1.17H6.176c-.65 0-1.178-.525-1.178-1.17h0z"/></svg>