<svg xmlns="http://www.w3.org/2000/svg" width="41" height="34" fill="#000" fill-rule="nonzero"><path d="M38.403 25.482c1.046-.903 1.645-2.207 1.645-3.576V4.766C40.045 2.135 37.88.003 35.2 0H5.8C3.12.003.955 2.135.95 4.766v17.14c0 1.37.6 2.673 1.645 3.576C1.13 25.543 0 26.68 0 28.118v3.158C0 32.778 1.22 34 2.722 34h35.556C39.78 34 41 32.778 41 31.276v-3.158c0-1.44-1.13-2.574-2.597-2.636zM5.8 1.193h29.4c2.002.002 3.625 1.6 3.627 3.573v7.64l-2.854.002c-.25 0-.476.153-.565.383l-.265.686-.624-1.988c-.08-.248-.315-.416-.58-.4h-.002c-.265-.003-.5.166-.578.415l-.855 2.8-1.64-7.955c-.06-.286-.32-.5-.616-.478s-.54.23-.578.52l-1.315 10.372-1.484-7.727c-.053-.276-.294-.478-.58-.485s-.537.183-.604.456l-1.152 4.692-.486-.987c-.1-.206-.313-.336-.545-.336H18.47l-.872-2.417c-.086-.237-.315-.395-.57-.395h-.01c-.26.001-.5.167-.567.4l-.546 1.667-.988-3.225c-.08-.262-.33-.436-.608-.424a.61.61 0 0 0-.565.477l-1.385 6.724L11.024 4.68a.6.6 0 0 0-.582-.522c-.298-.01-.558.197-.614.486L8.14 13.487l-.88-3.5a.6.6 0 0 0-.537-.45.61.61 0 0 0-.606.357l-1.064 2.42-2.9-.005V4.77C2.165 2.796 3.788 1.2 5.8 1.196zM2.162 21.905V13.5l3.288.05c.245-.01.462-.158.555-.38l.5-1.17 1.118 4.44c.07.272.322.46.607.45s.525-.212.576-.488l1.486-7.8 1.312 10.325c.037.3.282.5.578.522a.6.6 0 0 0 .616-.478L14.44 11l.854 2.8c.075.252.308.426.574.43h.006a.61.61 0 0 0 .576-.419l.593-1.813.417 1.155c.086.238.315.396.57.395h5.094l1.057 2.146c.112.226.355.36.6.332s.464-.208.524-.453l.888-3.616 1.68 8.74c.054.282.304.486.595.486.317-.01.564-.23.6-.522l1.335-10.532 1.383 6.706c.055.268.288.464.565.477s.528-.162.608-.424l.975-3.187.556 1.78c.076.243.3.412.56.42s.494-.146.586-.384l.744-1.92h2.437v8.306c-.002 1.973-1.625 3.57-3.627 3.573H5.8c-2.002-.002-3.625-1.6-3.627-3.573zm37.627 9.37c0 .83-.692 1.53-1.5 1.53H2.722c-.82 0-1.5-.7-1.5-1.53v-3.158c0-.8.664-1.446 1.5-1.446h2.295a.61.61 0 0 0 .201-.034 4.93 4.93 0 0 0 .572.034h29.4a4.93 4.93 0 0 0 .508-.026.6.6 0 0 0 .178.026h2.38c.848 0 1.5.635 1.5 1.446v3.158zM5 28a2 2 0 1 0 2 2 2 2 0 0 0-2-2h0zm0 2.857A.86.86 0 0 1 4.143 30 .86.86 0 0 1 5 29.143.86.86 0 0 1 5.857 30a.86.86 0 0 1-.857.857zM32.34 28h-3.68c-.365 0-.66.285-.66.636v2.727a.65.65 0 0 0 .66.636h3.68c.365 0 .66-.285.66-.636v-2.727a.65.65 0 0 0-.66-.636zm-.66 2.727h-2.36v-1.455h2.358v1.455zM37.45 28h-2.9c-.303 0-.55.285-.55.636v2.727c0 .35.246.636.55.636h2.902c.303 0 .55-.285.55-.636v-2.727c0-.35-.246-.636-.55-.636h0zm-.55 2.727h-1.804v-1.455H36.9v1.455z"/><path d="M22.122 28H11.878A1.89 1.89 0 0 0 10 29.897v1.207A1.89 1.89 0 0 0 11.878 33h10.244A1.89 1.89 0 0 0 24 31.103v-1.207A1.89 1.89 0 0 0 22.122 28h0zm.683 3.103c0 .38-.306.69-.683.7H11.878c-.377 0-.683-.31-.683-.7v-1.207c0-.38.306-.69.683-.7h10.244c.377 0 .683.31.683.7v1.207z"/></svg>