<svg xmlns="http://www.w3.org/2000/svg" width="40" height="38" fill="#000" fill-rule="nonzero"><path d="M36.733 0H28.42v1.24h8.312c1.08 0 1.96.834 1.96 1.86v6.4H40V3.1C40 1.39 38.535 0 36.733 0h0z"/><path d="M1.174 26.52v-3.44h11.233v-1.215H1.174V3.037c0-1.005.8-1.822 1.76-1.822H28.42V0H2.936C1.317 0 0 1.362 0 3.037V26.52c0 1.674 1.317 3.037 2.936 3.037h4.36V28.34h-4.36c-.97 0-1.76-.817-1.76-1.822zm37.65-4.824H13.54v1.193h25.284v3.38c0 .987-.8 1.8-1.764 1.8H8.42v1.193h6.165l-.616 4.374h-1.842c-1.2 0-2.156.98-2.156 2.187V38h19.992v-2.187c0-1.206-.967-2.187-2.156-2.187h-1.842l-.616-4.374h11.7c1.62 0 2.94-1.338 2.94-2.983V10.556h-1.176v11.14zM27.8 34.82a.99.99 0 0 1 .98.994v.994H11.15v-.994a.99.99 0 0 1 .98-.994h5.208v-1.193H15.16l.616-4.374h8.388l.616 4.374h-6.266v1.193H27.8zm-8.863-10.542h2.105v2.1h-2.105zM14.373 4.222l-2.6 7.25-2.06-3.493-2.396 2.898h-4.16v1.155H7.88L9.56 10l2.484 4.2 2.2-6.154 2.502 8.834 2.74-4.858h4.725v-1.155H18.8l-1.693 3zm11.943-1.055H35.8v2.1h-9.474zm0 13.723H35.8V19h-9.474zm0-9.5H35.8v2.1h-9.474zm0 5.277H35.8v2.1h-9.474z"/><path d="M27.368 6.333h2.105v2.1h-2.105zm3.158 0h2.105v2.1h-2.105z"/><path d="M32.632 6.333h2.105v2.1h-2.105zm-2.106 4.223h2.105v2.1h-2.105z"/><path d="M32.632 10.556h2.105v2.1h-2.105zm-5.264 0h2.105v2.1h-2.105zm3.158 5.277h2.105v2.1h-2.105z"/><path d="M32.632 15.833h2.105v2.1h-2.105zm-5.264 0h2.105v2.1h-2.105z"/></svg>