<svg xmlns="http://www.w3.org/2000/svg" width="51.269" height="41.85" viewBox="0 0 51.269 41.85">
  <g id="Group_1206028" data-name="Group 1206028" transform="translate(-1052.489 -11062.149)">
    <g id="college-graduation" transform="translate(1052.489 11025.502)">
      <g id="Layer_5_59_" transform="translate(0 36.648)">
        <g id="Group_1205862" data-name="Group 1205862" transform="translate(0 0)">
          <path id="Path_1810284" data-name="Path 1810284" d="M70.305,211.794a6.672,6.672,0,0,1-6.581,0l-14.9-9.137s-1.345-.824-1.345,1.043v9.124c0,4.806,8.745,9.988,19.532,9.988s19.532-5.181,19.532-9.988v-9.638c0-1.5-.956-.766-.956-.766Z" transform="translate(-41.38 -180.962)" fill="#178def"/>
          <path id="Path_1810285" data-name="Path 1810285" d="M50.41,51.076a1.378,1.378,0,0,0,0-2.553L27.716,37.174a4.377,4.377,0,0,0-4.163,0L.859,48.523a1.378,1.378,0,0,0,0,2.553L23.553,64.995a4.377,4.377,0,0,0,4.163,0" transform="translate(0 -36.648)" fill="#178def"/>
          <path id="Path_1810286" data-name="Path 1810286" d="M359.567,201.585V186.212s.011-.728-.421-.488a12.559,12.559,0,0,0-1.5.927,1.29,1.29,0,0,0-.268.974v13.959a.41.41,0,0,1-.251.341,2.656,2.656,0,1,0,2.678-.005A.4.4,0,0,1,359.567,201.585Z" transform="translate(-310.095 -166.526)" fill="#178def"/>
        </g>
      </g>
    </g>
  </g>
</svg>
