<svg xmlns="http://www.w3.org/2000/svg" width="46.532" height="52.106" viewBox="0 0 46.532 52.106">
  <g id="Group_1206026" data-name="Group 1206026" transform="translate(-576.995 -11048.094)">
    <g id="Group_1205861" data-name="Group 1205861" transform="translate(570.004 11044.094)">
      <path id="Path_1810273" data-name="Path 1810273" d="M26,6h7.444V8.791H26Z" transform="translate(-1.322 -0.139)" fill="#178def"/>
      <path id="Path_1810274" data-name="Path 1810274" d="M39.56,31.481c-2.325,0-2.325-2.481-4.651-2.481s-2.325,2.481-4.651,2.481S27.933,29,25.607,29s-2.325,2.481-4.649,2.481S18.631,29,16.3,29s-2.328,2.481-4.657,2.481S9.319,29,6.991,29V57.845H43.28V29.167c-1.447.551-1.757,2.314-3.72,2.314Z" transform="translate(0 -1.738)" fill="#178def"/>
      <path id="Path_1810275" data-name="Path 1810275" d="M51.717,31.481c-1.966,0-2.277-1.764-3.726-2.315V57.845h8.382V29C54.045,29,54.045,31.481,51.717,31.481Z" transform="translate(-2.85 -1.738)" fill="#178def"/>
      <path id="Path_1810276" data-name="Path 1810276" d="M21.931,28.369c.3,0,.4-.048.966-.652a4.623,4.623,0,0,1,7.367,0c.561.6.665.651.962.652a13.241,13.241,0,0,1,.286-5.761A12.312,12.312,0,0,1,35.6,16.052a8.062,8.062,0,0,0-3.436-2.26V11H26.583v2.791A8.165,8.165,0,0,0,21,21.537v6.218c.5.536.623.614.931.614Z" transform="translate(-0.974 -0.487)" fill="#178def"/>
      <path id="Path_1810277" data-name="Path 1810277" d="M49.758,27.923c.543.58.652.653.97.653s.428-.073.972-.653c.19-.2.412-.434.669-.663.81-4.146-.634-7.935-3.422-8.681a4.226,4.226,0,0,0-2.973.368,4.352,4.352,0,0,1,1.31-2.477,3.1,3.1,0,0,1,2.5-.563.93.93,0,1,0,.251-1.844,4.91,4.91,0,0,0-3.931.968,6.151,6.151,0,0,0-1.937,3.457,4.237,4.237,0,0,0-2.411-1.834c-2.978-.8-6.363,2.177-7.56,6.644a11.8,11.8,0,0,0-.388,3.92,4.306,4.306,0,0,1,2.961-1.122,4.737,4.737,0,0,1,3.683,1.829c.566.6.665.652.968.652s.4-.048.968-.652a4.626,4.626,0,0,1,7.369,0Z" transform="translate(-1.863 -0.694)" fill="#178def"/>
      <path id="Path_1810278" data-name="Path 1810278" d="M10.677,27.229c.543.58.652.653.97.653s.428-.073.972-.653A4.74,4.74,0,0,1,16.3,25.4a4.365,4.365,0,0,1,1.861.392V21.051a9.985,9.985,0,0,1,1.186-4.686C16.275,8.5,12.446,3.348,9.764,4.067c-3.325.891-3.675,10.467-.9,21.73a5.866,5.866,0,0,1,1.816,1.432ZM15.833,16.6a.93.93,0,0,1,.583,1.179l-2.151,6.356a.93.93,0,1,1-1.763-.6l2.151-6.356a.931.931,0,0,1,1.179-.583Zm-5.5-.219,2.149-6.356a.93.93,0,1,1,1.763.6L12.1,16.98a.93.93,0,1,1-1.763-.6Z" transform="translate(-0.001 0)" fill="#178def"/>
    </g>
  </g>
</svg>
