<svg xmlns="http://www.w3.org/2000/svg" width="61.743" height="43.813" viewBox="0 0 61.743 43.813">
  <g id="Group_1206025" data-name="Group 1206025" transform="translate(-324.771 -11060.281)">
    <g id="Group_1205860" data-name="Group 1205860" transform="translate(324.771 10986.616)">
      <path id="Path_1810269" data-name="Path 1810269" d="M58.677,385.425l-.578,2.314a2.863,2.863,0,1,0,5.554,1.389l.919-3.673H59.43C59.177,385.454,58.925,385.444,58.677,385.425Z" transform="translate(-50.952 -273.818)" fill="#178def"/>
      <path id="Path_1810270" data-name="Path 1810270" d="M401.319,385.425c-.248.019-.5.029-.753.029h-5.141l.918,3.673a2.863,2.863,0,0,0,5.554-1.389Z" transform="translate(-347.302 -273.818)" fill="#178def"/>
      <path id="Path_1810271" data-name="Path 1810271" d="M43.8,84.4a7.066,7.066,0,0,1,6.326,5.638l1.5,7.492a1.808,1.808,0,0,0,1.768,1.449h31.2a1.808,1.808,0,0,0,1.768-1.449l1.5-7.492a7.069,7.069,0,0,1,5.679-5.554l.245-1.368a8.039,8.039,0,0,0-7.913-9.45H51.442a8.037,8.037,0,0,0-7.859,9.721Z" transform="translate(-38.121)" fill="#178def"/>
      <path id="Path_1810272" data-name="Path 1810272" d="M60.367,179.274a5.116,5.116,0,0,0-3.723-1.615,5.062,5.062,0,0,0-1.6.262h0a5.137,5.137,0,0,0-3.395,3.837l-1.5,7.491a3.761,3.761,0,0,1-3.678,3.015h-31.2a3.761,3.761,0,0,1-3.678-3.015l-1.5-7.491a5.134,5.134,0,0,0-3.982-3.994h0A5.1,5.1,0,0,0,.01,183.1l.678,10.175a7.8,7.8,0,0,0,7.517,7.748v0c.09,0,.181,0,.273,0H53.264c.091,0,.183,0,.273,0v0a7.8,7.8,0,0,0,7.517-7.748l.678-10.175A5.115,5.115,0,0,0,60.367,179.274Z" transform="translate(0 -91.337)" fill="#178def"/>
    </g>
  </g>
</svg>
