<svg xmlns="http://www.w3.org/2000/svg" width="49.955" height="49.966" viewBox="0 0 49.955 49.966">
  <g id="Group_1206023" data-name="Group 1206023" transform="translate(-944 -10827.688)">
    <g id="Group_1205858" data-name="Group 1205858" transform="translate(943.947 10827.688)">
      <path id="Path_1810263" data-name="Path 1810263" d="M123.146,10.344A10.343,10.343,0,0,0,112.9,0a8,8,0,0,0-5.855,2.637A8,8,0,0,0,101.189,0,10.343,10.343,0,0,0,90.942,10.344c0,5.682,4.17,8.616,9,12.014a73.776,73.776,0,0,1,6.144,4.666l.958.832.959-.831c2.366-2.047,4.616-3.65,6.6-5.063,4.773-3.4,8.544-6.083,8.544-11.618Zm-11.711,4.392h-2.928v2.928H105.58V14.736h-2.928V11.808h2.928V8.881h2.928v2.928h2.928Z" transform="translate(-82.019)" fill="#178def"/>
      <path id="Path_1810264" data-name="Path 1810264" d="M292.7,137.2c-2.986,0-3.757,13.877-3.816,14.17a11.38,11.38,0,0,1-4.149,6.856l-6.34,4.6-1.755-2.344,6.34-4.6c2.512-1.883,3.656-5.1.517-5.1-2.811,0-8.066,3.255-9.624,4.546a8.115,8.115,0,0,0-2.935,6.249v12.2h8.783a7.494,7.494,0,0,1,1.932-4.4,41.64,41.64,0,0,1,4.8-4.918c3.455-3.25,7.036-6.587,7.5-9.983a88.515,88.515,0,0,0,.5-9.681C294.447,140.887,294.116,137.325,292.7,137.2Z" transform="translate(-244.452 -123.81)" fill="#178def"/>
      <path id="Path_1810265" data-name="Path 1810265" d="M20.283,155.058c-4.128-2.84-7.261-4.275-9.281-4.275-3.139,0-1.994,3.215.517,5.1l6.34,4.6L16.1,162.828l-6.34-4.6a11.379,11.379,0,0,1-4.149-6.856c-.059-.293-.83-14.17-3.816-14.17-1.639.146-1.815,4.918-1.727,9.486.059,3.338.322,6.587.468,7.788.469,3.4,4.05,6.734,7.5,9.983a41.631,41.631,0,0,1,4.8,4.918,7.494,7.494,0,0,1,1.932,4.4h8.783V161.637a8.239,8.239,0,0,0-3.279-6.579Z" transform="translate(0 -123.81)" fill="#178def"/>
    </g>
  </g>
</svg>
