<svg xmlns="http://www.w3.org/2000/svg" width="52.123" height="50.653" viewBox="0 0 52.123 50.653">
  <g id="Group_1206020" data-name="Group 1206020" transform="translate(-222 -10827)">
    <path id="grocery-store" d="M2.2,1a2.2,2.2,0,0,0,0,4.4H6.121A1.528,1.528,0,0,1,7.57,6.449l7.261,21.787a5.37,5.37,0,0,1,.116,3l-.6,2.4a5.693,5.693,0,0,0,5.471,7.011H46.248a2.2,2.2,0,0,0,0-4.4H19.821a1.19,1.19,0,0,1-1.2-1.536l.451-1.8a1.411,1.411,0,0,1,1.369-1.068H44.046a2.2,2.2,0,0,0,2.09-1.505l5.871-17.618a2.2,2.2,0,0,0-2.09-2.9H14.436a1.528,1.528,0,0,1-1.449-1.045L10.9,2.505A2.2,2.2,0,0,0,8.809,1ZM17.618,42.844a4.4,4.4,0,1,0,4.4,4.4A4.4,4.4,0,0,0,17.618,42.844Zm26.428,0a4.4,4.4,0,1,0,4.4,4.4A4.4,4.4,0,0,0,44.046,42.844Z" transform="translate(222 10826)" fill="#178def"/>
  </g>
</svg>
