<svg xmlns="http://www.w3.org/2000/svg" width="50.713" height="50" viewBox="0 0 50.713 50">
  <g id="Group_1206024" data-name="Group 1206024" transform="translate(-1185 -10832.188)">
    <g id="main" transform="translate(1184 10830.253)">
      <path id="Path_1810266" data-name="Path 1810266" d="M3.494,16h11.64a2.494,2.494,0,0,1,2.494,2.494V27.64a2.494,2.494,0,0,1-2.494,2.494H3.494A2.494,2.494,0,0,1,1,27.64V18.5A2.494,2.494,0,0,1,3.494,16Z" transform="translate(0 -2.361)" fill="#178def"/>
      <circle id="Ellipse_56032" data-name="Ellipse 56032" cx="4" cy="4" r="4" transform="translate(23.856 1.935)" fill="#178def"/>
      <path id="Path_1810267" data-name="Path 1810267" d="M12,35.684a4.919,4.919,0,0,0,1.413,3.449H26.931V35.679a.828.828,0,0,0-.828-.828H12.83a.832.832,0,0,0-.828.832Z" transform="translate(-1.856 -5.541)" fill="#178def"/>
      <path id="Path_1810268" data-name="Path 1810268" d="M53.167,44.885A6.759,6.759,0,0,0,46.248,39.9a5.851,5.851,0,0,0,.2-1.489A4.926,4.926,0,0,0,44.242,34.4c-1.785-1.184-3.12-4.2-3.322-7.364h1.592A2.486,2.486,0,0,0,45,24.559V22.908a2.486,2.486,0,0,0-2.487-2.479H36.826c-4.807-1.384-6.253-2.979-7.118-3.934l-.052-.058a3.081,3.081,0,0,0-1.677-3.17,3.026,3.026,0,0,0-4.258,2.076l-2.385,11.4A2.479,2.479,0,0,0,23.5,29.71l4.087.452a.826.826,0,0,1,.738.867l-.644,10.9a4.384,4.384,0,0,1-1.228-4.818H13.741c-1.34,2.22-3.486,6.384-2.618,9.092a3.358,3.358,0,0,0,2.169,2.179,3.1,3.1,0,0,0,1.155.125,5.326,5.326,0,0,0,10.626,0H39.322a1.049,1.049,0,0,0,.727-.352,5.817,5.817,0,0,0,.488,1.416.828.828,0,0,0,1.427.116c.1-.139.2-.275.312-.408a5.321,5.321,0,1,0,10.379-2.259.82.82,0,0,0,.727-.894,6.453,6.453,0,0,0-.216-1.236ZM19.76,51.8a3.663,3.663,0,0,1-3.645-3.3h7.29a3.664,3.664,0,0,1-3.645,3.3Zm16.117-9.081h-3.23l1.428-13.5a2.479,2.479,0,0,0-1.6-2.581L28.4,25.117a.824.824,0,0,1-.517-.955l.62-2.673a14.2,14.2,0,0,0,7.374,3.02ZM48,52.046A3.668,3.668,0,0,1,43.879,48l.253-.315a9.213,9.213,0,0,1,6.381-1.255l.2.152A3.658,3.658,0,0,1,48,52.046Z" transform="translate(-1.673 -1.85)" fill="#178def"/>
    </g>
  </g>
</svg>
