<svg xmlns="http://www.w3.org/2000/svg" width="54.552" height="54.777" viewBox="0 0 54.552 54.777">
  <g id="Group_1206027" data-name="Group 1206027" transform="translate(-812.701 -11049.223)">
    <g id="Glyph" transform="translate(812.463 11049.223)">
      <g id="Glyph-2" data-name="Glyph" transform="translate(0.239 0)">
        <path id="Path_1810279" data-name="Path 1810279" d="M56.33,52.2a9.924,9.924,0,0,1-5.64-6.877.656.656,0,0,0-.214-.351,11.782,11.782,0,0,1-2.615-3.231,2.85,2.85,0,0,1,2.957-4.215,4.439,4.439,0,0,0,1.044.064.642.642,0,0,0,.479-.261,9.6,9.6,0,0,1,5.55-3.68.637.637,0,0,0,.488-.621V28.343a.645.645,0,0,0-.552-.638c-.372-.056-.7-.116-1.006-.188a10.915,10.915,0,0,1-3.561-1.575.608.608,0,0,0-.407-.111,13.046,13.046,0,0,1-4.647-.573,2.982,2.982,0,0,1-.822-5.3,5.462,5.462,0,0,0,1.07-.95.627.627,0,0,0,.15-.514,10.915,10.915,0,0,1,.83-5.974,10.789,10.789,0,0,1,8.383-6.346.642.642,0,0,0,.548-.668A5.764,5.764,0,0,0,52.6,0H30.777A5.786,5.786,0,0,0,25,5.777V15.32a.647.647,0,0,0,.71.638,14.554,14.554,0,0,1,1.476-.081,14.1,14.1,0,0,1,12.826,8.272.644.644,0,0,0,.389.351,8.257,8.257,0,0,0,2.555.411,3.348,3.348,0,0,1,2.585,5.456,16.562,16.562,0,0,1-4.866,4.172.619.619,0,0,0-.3.338,14.069,14.069,0,0,1-13.215,9.158,14.341,14.341,0,0,1-1.455-.086.648.648,0,0,0-.71.638V49a5.786,5.786,0,0,0,5.777,5.777H52.6a5.748,5.748,0,0,0,3.9-1.524A.642.642,0,0,0,56.33,52.2ZM37.667,4.707A2.719,2.719,0,0,1,35.318,3.2L34.291,1.284h14.8L48.062,3.2a2.719,2.719,0,0,1-2.349,1.506Zm8.516,44.506H37.2a.642.642,0,1,1,0-1.284h8.987a.642.642,0,0,1,0,1.284Z" transform="translate(-14.403 0)" fill="#178def"/>
        <path id="Path_1810280" data-name="Path 1810280" d="M105.483,100.712h1.7L107.637,99h-1.7Z" transform="translate(-60.444 -56.633)" fill="#178def"/>
        <path id="Path_1810281" data-name="Path 1810281" d="M88.794,81.59A8.4,8.4,0,0,0,84.762,85a.19.19,0,0,1-.128.086,6.165,6.165,0,0,1-2.265.035,1.56,1.56,0,0,0-1.617,2.309,10.1,10.1,0,0,0,2.782,3.245.184.184,0,0,1,.076.119,8.832,8.832,0,0,0,8.542,7.348,8.552,8.552,0,0,0,6.933-13.422A8.645,8.645,0,0,0,88.794,81.59Zm7.139,7.1H94.7l-.458,1.712h1.262a.642.642,0,0,1,0,1.284H93.9l-.41,1.531a.642.642,0,1,1-1.241-.333l.321-1.2h-1.7l-.415,1.55a.642.642,0,1,1-1.241-.333l.326-1.217h-.885a.642.642,0,1,1,0-1.284h1.231l.458-1.712H89.086a.642.642,0,0,1,0-1.284h1.606l.41-1.531a.642.642,0,0,1,1.241.333l-.321,1.2h1.7l.415-1.55a.642.642,0,1,1,1.241.333l-.328,1.217h.887a.642.642,0,0,1,0,1.284Z" transform="translate(-46.18 -46.327)" fill="#178def"/>
        <path id="Path_1810282" data-name="Path 1810282" d="M80.526,22.913a9.569,9.569,0,0,0-.621,5.906.313.313,0,0,1-.052.245,7.036,7.036,0,0,1-1.83,1.833,1.69,1.69,0,0,0,.463,3.006,11.142,11.142,0,0,0,4.744.465.279.279,0,0,1,.207.052,9.775,9.775,0,0,0,5.875,2,9.6,9.6,0,1,0-8.786-13.506Zm9.426,8.206a1.191,1.191,0,0,1-1.175,0c-2.511-1.427-3.937-3.2-3.876-5.446a2.519,2.519,0,0,1,2.507-2.53,2.489,2.489,0,0,1,1.957.949,2.489,2.489,0,0,1,1.957-.949,2.519,2.519,0,0,1,2.507,2.53C93.89,27.92,92.462,29.691,89.951,31.119Z" transform="translate(-44.317 -9.877)" fill="#178def"/>
        <path id="Path_1810283" data-name="Path 1810283" d="M25.171,56.9a.609.609,0,0,1,.311-.35,14.9,14.9,0,0,0,4.9-4.074,2.063,2.063,0,0,0-1.592-3.356,9.781,9.781,0,0,1-3.536-.681.661.661,0,0,1-.377-.364,12.772,12.772,0,0,0-5.1-6.058C10.73,36.345-.871,43.872.324,54.429a12.981,12.981,0,0,0,12.7,11.264A12.894,12.894,0,0,0,25.171,56.9ZM9.979,58.324a1.27,1.27,0,0,1-.642.174H7.626a1.284,1.284,0,0,1-1.284-1.284V50.795a1.284,1.284,0,0,1,1.284-1.284H9.337a1.28,1.28,0,0,1,.642.171Zm1.284-.575V50.06c1.257-1.167,2.066-3.542,2.6-4.661.948-1.972,2.859.673,2.392,2.1-.161.493-.5,2.011-.5,2.011a3.852,3.852,0,0,1,3.852,3.852v1.284a3.852,3.852,0,0,1-3.852,3.852h-2.39a2.567,2.567,0,0,1-1.148-.271Z" transform="translate(-0.239 -22.924)" fill="#178def"/>
      </g>
    </g>
  </g>
</svg>
