<svg xmlns="http://www.w3.org/2000/svg" width="55" height="55" viewBox="0 0 55 55">
  <g id="Group_1206021" data-name="Group 1206021" transform="translate(-461 -10827.188)">
    <g id="XMLID_1392_" transform="translate(461 10827.188)">
      <path id="XMLID_1408_" d="M55,19.412V12.941H51.765v3.235H46.912V8.088H38.824V3.235h1.618V0H35.588V8.088H32.353V1.618H29.118V8.088H25.882V1.618H22.647V21.03h5.176a4.853,4.853,0,1,1,0,3.235H19.412V0H12.941V3.235h3.235V8.088H8.088v8.088H3.235V12.941H0v6.471H8.088v3.343H1.618V25.99H8.088v3.127H1.618v3.235H8.088v3.235H0v6.471H3.235V38.824H8.088v8.088h8.088v4.853H12.941V55h6.471V46.912h3.235v6.471h3.235V46.912h3.235v6.471h3.235V37.206H23.987a4.853,4.853,0,1,1,0-3.235h11.6V55h6.471V51.765H38.824V46.912h8.088V38.824h4.853v3.235H55V35.588H46.912V32.353h6.471V29.118H46.912V25.99h6.471V22.755H46.912V19.412Z" fill="#178def"/>
      <circle id="XMLID_1409_" cx="1.618" cy="1.618" r="1.618" transform="translate(30.778 21.026)" fill="#178def"/>
      <circle id="XMLID_1449_" cx="1.618" cy="1.618" r="1.618" transform="translate(17.837 33.968)" fill="#178def"/>
    </g>
  </g>
</svg>
