<svg xmlns="http://www.w3.org/2000/svg" width="52.513" height="49.965" viewBox="0 0 52.513 49.965">
  <g id="Group_1206022" data-name="Group 1206022" transform="translate(-703 -10827.688)">
    <g id="accessory" transform="translate(699.529 10823.438)">
      <path id="Path_1810257" data-name="Path 1810257" d="M32.442,41.25h-5.5a4.349,4.349,0,0,0-4.182,3.209H20.122a4.349,4.349,0,0,0-4.182-3.209h-5.5A6.2,6.2,0,0,0,4.25,47.438v1.834a6.2,6.2,0,0,0,6.188,6.188,9.861,9.861,0,0,0,9.844-9.626H22.6a9.861,9.861,0,0,0,9.844,9.626,6.2,6.2,0,0,0,6.188-6.188V47.438A6.2,6.2,0,0,0,32.442,41.25Z" transform="translate(-0.065 -3.078)" fill="#178def"/>
      <path id="Path_1810258" data-name="Path 1810258" d="M46.8,21.688A.688.688,0,0,0,46.109,21H14.938a.688.688,0,0,0-.688.688V23.98H46.8Z" transform="translate(-0.897 -1.394)" fill="#178def"/>
      <path id="Path_1810259" data-name="Path 1810259" d="M30.692,4.25A14.446,14.446,0,0,0,16.275,18.231H45.108A14.446,14.446,0,0,0,30.692,4.25Z" transform="translate(-1.065)" fill="#178def"/>
      <path id="Path_1810260" data-name="Path 1810260" d="M59.321,41.049l-5.4-3.6a10.765,10.765,0,0,1,.2,2.07v3.154a1.834,1.834,0,1,1-1.375,0V39.52a9.324,9.324,0,0,0-.2-1.8l-5,3.333a.686.686,0,0,0-.306.572V54.457a2.524,2.524,0,0,0,2.521,2.521h7.334a2.524,2.524,0,0,0,2.521-2.521V41.621a.686.686,0,0,0-.306-.572Z" transform="translate(-3.642 -2.762)" fill="#178def"/>
      <path id="Path_1810261" data-name="Path 1810261" d="M43.987,30.261a.688.688,0,1,1,.616-1.23,10.614,10.614,0,0,1,4.371,4.042c3.623-1.724,6.059-3.949,6.782-6.445a.693.693,0,0,0-.668-.878H4.165a.693.693,0,0,0-.668.878c1.677,5.788,12.55,10.123,26.13,10.123a48.538,48.538,0,0,0,18.079-3.116,9.248,9.248,0,0,0-3.718-3.374Z" transform="translate(0 -1.789)" fill="#178def"/>
      <path id="Path_1810262" data-name="Path 1810262" d="M54.192,37.073l.1.068a10.558,10.558,0,0,0-1.3-3.4q-.612.291-1.269.562a9.185,9.185,0,0,1,1.207,3.108l.5-.335a.688.688,0,0,1,.763,0Z" transform="translate(-4.014 -2.453)" fill="#178def"/>
    </g>
  </g>
</svg>
