<svg xmlns="http://www.w3.org/2000/svg" width="52" height="52" viewBox="0 0 52 52">
  <g id="tt-2" transform="translate(-344 -224)">
    <rect id="Rectangle_1" data-name="Rectangle 1" width="52" height="52" transform="translate(344 224)" fill="none"/>
    <g id="Group_6" data-name="Group 6" transform="translate(347 227)">
      <path id="Path_14" data-name="Path 14" d="M70.765,182.105H34.3a1.854,1.854,0,0,1-1.854-1.854v-22.84a1.854,1.854,0,0,1,1.854-1.854H70.765a1.854,1.854,0,0,1,1.854,1.854v22.84A1.854,1.854,0,0,1,70.765,182.105Z" transform="translate(-29.535 -141.581)" fill="#54469c"/>
      <path id="Path_15" data-name="Path 15" d="M430.817,155.557H428.04a1.854,1.854,0,0,1,1.851,1.857v22.835a1.854,1.854,0,0,1-1.851,1.857h2.777a1.854,1.854,0,0,0,1.851-1.857V157.414A1.854,1.854,0,0,0,430.817,155.557Z" transform="translate(-389.583 -141.581)" fill="#463b84"/>
      <path id="Path_16" data-name="Path 16" d="M63.356,207.273V186.809a.257.257,0,0,1,.257-.257h34.1a.257.257,0,0,1,.257.257v20.464a.257.257,0,0,1-.257.257h-34.1a.257.257,0,0,1-.257-.257Z" transform="translate(-57.664 -169.791)" fill="#99e6fc"/>
      <path id="Path_17" data-name="Path 17" d="M417.656,186.553h-2.777a.257.257,0,0,1,.257.258v20.463a.257.257,0,0,1-.257.258h2.777a.257.257,0,0,0,.257-.258V186.811a.257.257,0,0,0-.257-.258Z" transform="translate(-377.605 -169.792)" fill="#8ac9fe"/>
      <path id="Path_18" data-name="Path 18" d="M44.084,455.741H1.916A1.916,1.916,0,0,1,0,453.825v-2.762a.876.876,0,0,1,.876-.876H45.124a.876.876,0,0,1,.876.876v2.762A1.916,1.916,0,0,1,44.084,455.741Z" transform="translate(0 -409.741)" fill="#a2aee6"/>
      <path id="Path_19" data-name="Path 19" d="M463.585,450.189h-2.777a.876.876,0,0,1,.876.876v2.762a1.916,1.916,0,0,1-1.916,1.916h2.777a1.916,1.916,0,0,0,1.916-1.916v-2.762A.876.876,0,0,0,463.585,450.189Z" transform="translate(-418.461 -409.742)" fill="#8795de"/>
      <path id="Path_20" data-name="Path 20" d="M189.038,450.189H201.07v1.483a1.109,1.109,0,0,1-1.108,1.108h-9.815a1.109,1.109,0,0,1-1.108-1.108v-1.483Z" transform="translate(-172.054 -409.742)" fill="#6c7fd8"/>
      <path id="Path_21" data-name="Path 21" d="M109.252,264.807h-3.707a.747.747,0,0,1-.747-.747v-9.715a.747.747,0,0,1,.747-.747h3.707a.747.747,0,0,1,.747.747v9.715a.747.747,0,0,1-.747.747Z" transform="translate(-95.383 -230.815)" fill="#e759aa"/>
      <path id="Path_22" data-name="Path 22" d="M126.247,253.6H123.47a.747.747,0,0,1,.747.747v9.715a.747.747,0,0,1-.747.747h2.777a.747.747,0,0,0,.747-.747v-9.715a.747.747,0,0,0-.747-.747Z" transform="translate(-112.377 -230.815)" fill="#9857bd"/>
      <g id="Group_3" data-name="Group 3" transform="translate(3.256 42.674)">
        <path id="Path_23" data-name="Path 23" d="M37.793,474.984h-.878a.674.674,0,0,0,0,1.348h.878a.674.674,0,1,0,0-1.348Zm3.7,0h-.878a.674.674,0,0,0,0,1.348H41.5a.674.674,0,0,0,0-1.348Z" transform="translate(-36.241 -474.984)" fill="#e759aa"/>
      </g>
      <g id="Group_4" data-name="Group 4" transform="translate(17.344 25.801)">
        <path id="Path_24" data-name="Path 24" d="M193.724,288.519h5.267a.674.674,0,0,0,0-1.348h-5.267a.674.674,0,0,0,0,1.348Zm0,2.626h9.645a.674.674,0,1,0,0-1.348h-9.645a.674.674,0,0,0,0,1.348Zm9.645,1h-9.645a.674.674,0,0,0,0,1.348h9.645a.674.674,0,0,0,0-1.348Zm0,2.351h-9.645a.674.674,0,0,0,0,1.348h9.645a.674.674,0,0,0,0-1.348Z" transform="translate(-193.05 -287.171)" fill="#54469c"/>
      </g>
      <path id="Path_25" data-name="Path 25" d="M347.809,308.712a.674.674,0,0,0-.953,0l-2.03,2.03L343.5,309.42a.674.674,0,0,0-.953.953l1.8,1.8a.674.674,0,0,0,.953,0l2.507-2.507A.674.674,0,0,0,347.809,308.712Z" transform="translate(-311.595 -280.797)" fill="#97da7b"/>
      <path id="Path_26" data-name="Path 26" d="M125.91,1.3V18.364a1.3,1.3,0,0,1-1.3,1.3H114.1a.281.281,0,0,0-.247.147l-1.9,3.516a.325.325,0,0,1-.572,0l-1.9-3.516a.281.281,0,0,0-.247-.147H98.712a1.3,1.3,0,0,1-1.3-1.3V1.3a1.3,1.3,0,0,1,1.3-1.3h25.9A1.3,1.3,0,0,1,125.91,1.3Z" transform="translate(-88.662)" fill="#eaf6ff"/>
      <path id="Path_27" data-name="Path 27" d="M372.007,0H369.23a1.3,1.3,0,0,1,1.3,1.3V18.364a1.3,1.3,0,0,1-1.3,1.3h2.777a1.3,1.3,0,0,0,1.3-1.3V1.3A1.3,1.3,0,0,0,372.007,0Z" transform="translate(-336.057)" fill="#d8ecfe"/>
      <path id="Path_28" data-name="Path 28" d="M287.324,136.6V133.28a.23.23,0,0,1,.23-.23h8.218a.23.23,0,0,1,.23.23V136.6a.23.23,0,0,1-.23.23h-8.218A.23.23,0,0,1,287.324,136.6Z" transform="translate(-261.51 -121.096)" fill="#fef056"/>
      <path id="Path_29" data-name="Path 29" d="M353.226,133.05h-2.777a.23.23,0,0,1,.23.23V136.6a.23.23,0,0,1-.23.23h2.777a.23.23,0,0,0,.23-.23V133.28A.23.23,0,0,0,353.226,133.05Z" transform="translate(-318.963 -121.096)" fill="#ffd15b"/>
      <g id="Group_5" data-name="Group 5" transform="translate(11.278 3.14)">
        <path id="Path_30" data-name="Path 30" d="M130.248,37.447a.856.856,0,0,0-.8-.551h0a.856.856,0,0,0-.794.534l-.006.015L125.576,45.5a.674.674,0,1,0,1.259.48l.6-1.573h4l.593,1.571a.674.674,0,0,0,1.261-.476Zm-2.3,5.615,1.5-3.928,1.482,3.928Zm7.372-6.166a.674.674,0,0,0-.674.674v8.172a.674.674,0,0,0,1.348,0V37.57A.674.674,0,0,0,135.319,36.9Zm5.609-.6h3.822a.674.674,0,0,0,0-1.348h-3.822a.674.674,0,0,0,0,1.348Zm0,2.626h7a.674.674,0,1,0,0-1.348h-7a.674.674,0,0,0,0,1.348Zm7,1h-7a.674.674,0,0,0,0,1.348h7a.674.674,0,1,0,0-1.348Z" transform="translate(-125.532 -34.949)" fill="#54469c"/>
      </g>
    </g>
  </g>
</svg>
