<svg xmlns="http://www.w3.org/2000/svg" width="52" height="52" viewBox="0 0 52 52">
  <g id="tt-3" transform="translate(-344 -224)">
    <rect id="Rectangle_1" data-name="Rectangle 1" width="52" height="52" transform="translate(344 224)" fill="none"/>
    <g id="Group_8" data-name="Group 8" transform="translate(348.373 228.373)">
      <circle id="Ellipse_1" data-name="Ellipse 1" cx="22" cy="22" r="22" transform="translate(-0.373 -0.373)" fill="#fd5"/>
      <path id="Path_31" data-name="Path 31" d="M138.8,105.5l-6.207-6.207-7.736-2.153-6.442,4.036,1.819,1.819.251,1.193,1.712,1.712-2.654,2.654-4.356-4.356L112.9,116.9l4.767,4.767-.549.138,10.224,10.224a21.612,21.612,0,0,0,19.246-21.343L140.1,104.2Z" transform="translate(-103.354 -88.922)" fill="#fc0"/>
      <path id="Path_32" data-name="Path 32" d="M112.9,180.752h2.285v12.7H112.9Zm11.954,10.419a4.067,4.067,0,1,1,0-8.134l1.032-.947-1.032-1.338a6.352,6.352,0,1,0,0,12.7l1.032-1.151Z" transform="translate(-103.355 -165.478)" fill="#00429c"/>
      <path id="Path_33" data-name="Path 33" d="M269.754,180.753h-8.039v2.285h2.865v10.419h2.285V183.038h2.889Zm-11.177,6.352a4.072,4.072,0,0,1-4.067,4.067v2.285a6.352,6.352,0,1,0,0-12.7v2.285A4.072,4.072,0,0,1,258.577,187.105Z" transform="translate(-233.009 -165.478)" fill="#00347b"/>
      <g id="Group_7" data-name="Group 7" transform="translate(13.765 7.962)">
        <path id="Path_34" data-name="Path 34" d="M166.238,101.435a7.678,7.678,0,0,1,4.372-1.361l1.305-.891-1.305-1.394a9.952,9.952,0,0,0-5.666,1.763Zm-1.294,14.608a9.952,9.952,0,0,0,5.666,1.763l1.305-1.09-1.305-1.195a7.678,7.678,0,0,1-4.372-1.361Zm-2.07-19.5,1.294,1.883a11.315,11.315,0,0,1,6.442-2l1.032-1.232-1.032-1.053A13.587,13.587,0,0,0,162.874,96.54Zm0,22.515a13.587,13.587,0,0,0,7.736,2.407l1.032-1.293-1.032-.992a11.315,11.315,0,0,1-6.442-2Z" transform="translate(-162.874 -94.133)" fill="#6aa8ff"/>
      </g>
      <path id="Path_35" data-name="Path 35" d="M254.511,119.177v2.285a13.587,13.587,0,0,0,7.736-2.407l-1.294-1.883A11.315,11.315,0,0,1,254.511,119.177Zm7.736-22.637a13.587,13.587,0,0,0-7.736-2.407v2.285a11.315,11.315,0,0,1,6.442,2Zm-3.364,17.62a7.678,7.678,0,0,1-4.372,1.361v2.285a9.952,9.952,0,0,0,5.666-1.763Zm1.294-14.608a9.952,9.952,0,0,0-5.666-1.763v2.285a7.678,7.678,0,0,1,4.372,1.361Z" transform="translate(-233.01 -86.171)" fill="#4894ff"/>
    </g>
  </g>
</svg>
