<svg xmlns="http://www.w3.org/2000/svg" width="52" height="52" viewBox="0 0 52 52">
  <g id="tt-4" transform="translate(-344 -224)">
    <rect id="Rectangle_1" data-name="Rectangle 1" width="52" height="52" transform="translate(344 224)" fill="none"/>
    <g id="Group_10" data-name="Group 10" transform="translate(288.158 245.847)">
      <g id="Hosting-server-cloud_copy_2" data-name="Hosting-server-cloud copy 2" transform="translate(61.494 -16.529)">
        <path id="Path_36" data-name="Path 36" d="M170.273,265.406v2.811a1.406,1.406,0,0,1-1.406,1.406H153.406A1.406,1.406,0,0,1,152,268.217v-2.811A1.406,1.406,0,0,1,153.406,264h15.462A1.406,1.406,0,0,1,170.273,265.406Z" transform="translate(-140.788 -242.915)" fill="#ffd648"/>
        <rect id="Rectangle_2" data-name="Rectangle 2" width="18" height="6" rx="3" transform="translate(11.348 15.363)" fill="#ffd648"/>
        <rect id="Rectangle_3" data-name="Rectangle 3" width="18" height="5" rx="2.5" transform="translate(11.348 10.363)" fill="#ffd648"/>
        <path id="Path_37" data-name="Path 37" d="M158.325,152.867h-4.92A1.406,1.406,0,0,1,152,151.462v-2.811a1.406,1.406,0,0,1,1.406-1.406h4.92a1.406,1.406,0,0,0-1.406,1.406v2.811A1.406,1.406,0,0,0,158.325,152.867Zm0-5.622h-4.92A1.406,1.406,0,0,1,152,145.839v-2.811a1.406,1.406,0,0,1,1.406-1.406h4.92a1.406,1.406,0,0,0-1.406,1.406v2.811A1.406,1.406,0,0,0,158.325,147.245Zm0-5.622h-4.92A1.406,1.406,0,0,1,152,140.217v-2.811A1.406,1.406,0,0,1,153.406,136h4.92a1.406,1.406,0,0,0-1.406,1.406v2.811A1.406,1.406,0,0,0,158.325,141.622Z" transform="translate(-140.788 -126.16)" fill="#ffb300"/>
        <path id="Path_38" data-name="Path 38" d="M58.527,33.834a6.325,6.325,0,1,1,0,12.651h-4.92A1.406,1.406,0,0,0,52.2,45.079a1.406,1.406,0,0,0,1.406-1.406V40.862A1.406,1.406,0,0,0,52.2,39.457a1.406,1.406,0,0,0,1.406-1.406V35.24A1.406,1.406,0,0,0,52.2,33.834H36.74a1.406,1.406,0,0,0-1.406,1.406v2.811a1.406,1.406,0,0,0,1.406,1.406,1.406,1.406,0,0,0-1.406,1.406v2.811a1.406,1.406,0,0,0,1.406,1.406,1.406,1.406,0,0,0-1.406,1.406H31.82a7.731,7.731,0,1,1,1.265-15.359,12.654,12.654,0,0,1,23.771,2.932A6.282,6.282,0,0,1,58.527,33.834Z" transform="translate(-24.123 -23.994)" fill="#00d0ce"/>
        <path id="Path_39" data-name="Path 39" d="M44.471,24a12.673,12.673,0,0,1,2.812.314,12.672,12.672,0,0,0-8.575,6.817,7.732,7.732,0,0,0-3.345,15.075,1.446,1.446,0,0,0-.028.284H31.82a7.731,7.731,0,1,1,1.265-15.359A12.65,12.65,0,0,1,44.471,24ZM55.716,39.462a1.406,1.406,0,0,1,1.406,1.406v2.811a1.406,1.406,0,0,1-1.406,1.406,1.4,1.4,0,0,1,1.4,1.367,6.383,6.383,0,0,1-.7.039H53.607A1.406,1.406,0,0,0,52.2,45.084a1.406,1.406,0,0,0,1.406-1.406V40.867A1.406,1.406,0,0,0,52.2,39.462a1.406,1.406,0,0,0,1.406-1.406V35.245A1.406,1.406,0,0,0,52.2,33.839s3.33.048,3.74.018a1.406,1.406,0,0,1,1.18,1.388v2.811A1.406,1.406,0,0,1,55.716,39.462Z" transform="translate(-24.123 -23.999)" fill="#00a5ab"/>
        <g id="Group_9" data-name="Group 9" transform="translate(3.481 11.948)">
          <path id="Path_40" data-name="Path 40" d="M73.839,160h8.434v1.406H73.839Zm9.839,0h1.406v1.406H83.679Zm2.811,0H87.9v1.406H86.49Zm-12.651,5.622h8.434v1.406H73.839Zm9.839,0h1.406v1.406H83.679Zm2.811,0H87.9v1.406H86.49Zm-12.651,5.622h8.434v1.406H73.839Zm9.839,0h1.406v1.406H83.679Zm2.811,0H87.9v1.406H86.49Zm-6.325,3.514H81.57V183.9H80.165Zm-6.325,4.92H64v-1.406h9.137v-3.514h1.406v4.217A.7.7,0,0,1,73.839,179.679Z" transform="translate(-64 -160)" fill="#007d93"/>
          <path id="Path_41" data-name="Path 41" d="M129.406,338.542H128v-3.514a.7.7,0,0,1,.7-.7h5.622V328h1.406v7.028a.7.7,0,0,1-.7.7h-5.622Zm26.707-5.622h-9.839a.7.7,0,0,1-.7-.7V328h1.406v3.514h9.137Z" transform="translate(-122.378 -313.241)" fill="#007d93"/>
          <path id="Path_42" data-name="Path 42" d="M303.731,338.542h-1.406v-2.811H296.7a.7.7,0,0,1-.7-.7V328h1.406v6.325h5.622a.7.7,0,0,1,.7.7Z" transform="translate(-275.619 -313.241)" fill="#007d93"/>
        </g>
        <ellipse id="Ellipse_2" data-name="Ellipse 2" cx="2.5" cy="2" rx="2.5" ry="2" transform="translate(36.348 29.363)" fill="#00d0ce"/>
        <ellipse id="Ellipse_3" data-name="Ellipse 3" cx="2" cy="2.5" rx="2" ry="2.5" transform="translate(29.348 36.363)" fill="#00d0ce"/>
        <circle id="Ellipse_4" data-name="Ellipse 4" cx="2" cy="2" r="2" transform="translate(18.348 35.363)" fill="#00d0ce"/>
        <ellipse id="Ellipse_5" data-name="Ellipse 5" cx="2" cy="2.5" rx="2" ry="2.5" transform="translate(7.348 36.363)" fill="#00d0ce"/>
        <ellipse id="Ellipse_6" data-name="Ellipse 6" cx="2.5" cy="2" rx="2.5" ry="2" transform="translate(-0.652 29.363)" fill="#00d0ce"/>
      </g>
    </g>
  </g>
</svg>
