<svg xmlns="http://www.w3.org/2000/svg" xmlns:xlink="http://www.w3.org/1999/xlink" width="70" height="70" viewBox="0 0 70 70">
  <defs>
    <clipPath id="clip-path">
      <rect id="Rectangle_181903" data-name="Rectangle 181903" width="70" height="70" transform="translate(8409 -7006)" fill="#fff"/>
    </clipPath>
  </defs>
  <g id="Mask_Group_1065025" data-name="Mask Group 1065025" transform="translate(-8409 7006)" clip-path="url(#clip-path)">
    <g id="Group_1159900" data-name="Group 1159900" transform="translate(30025 -11992.888)">
      <g id="Group_132230" data-name="Group 132230" transform="translate(-21599.232 5008.819)">
        <path id="Path_298241" data-name="Path 298241" d="M53.019,44.613c1.708-1.164,3.421-2.206,4.99-3.432a3.431,3.431,0,0,0-.732-5.84,3.216,3.216,0,0,0-3.182.338c-1.4.816-2.746,1.723-4.116,2.591l-.821.518-1.191-1.812c.706-.461,1.373-.908,2.052-1.336,1.1-.692,2.169-1.448,3.32-2.041a4.478,4.478,0,0,1,6.083,1.323,8.45,8.45,0,0,1,1.78,3.439,4.157,4.157,0,0,1-1.612,4.371,43.978,43.978,0,0,1-3.622,2.508c-.415.269-.432.49-.26.912q2.5,6.153,4.969,12.322c.062.152.1.313.154.469a.549.549,0,0,1-.091.031c-1.758.131-1.785.142-2.448-1.455-1.741-4.2-3.455-8.4-5.179-12.607C53.072,44.809,53.046,44.7,53.019,44.613ZM60.458,58.7c-.082-.25-.149-.5-.246-.741q-2.372-5.866-4.753-11.727c-.271-.667-.229-.8.37-1.207,1.227-.839,2.5-1.623,3.652-2.558a3.825,3.825,0,0,0,1.506-3.692A7.765,7.765,0,0,0,59.217,35.1a4.281,4.281,0,0,0-5.874-1.215c-1.071.587-2.08,1.287-3.113,1.944-.628.4-1.247.81-1.891,1.228l.895,1.353c.222-.136.413-.25.6-.369,1.353-.857,2.685-1.748,4.062-2.565,1.81-1.073,3.392-.875,4.581.524a6.38,6.38,0,0,1,.685,1.035,3.008,3.008,0,0,1-.5,3.926,7.564,7.564,0,0,1-1.2,1.014c-1.354.918-2.73,1.8-4.128,2.721.253.691.474,1.372.748,2.031q2.278,5.481,4.577,10.954c.459,1.1.454,1.1,1.649,1.051A1.247,1.247,0,0,0,60.458,58.7Z" transform="translate(-35.58 -32.936)"/>
        <path id="Path_298242" data-name="Path 298242" d="M79.686,34.476l-9.917,23.4c-.376-1.044-.715-1.948-1.017-2.865a.909.909,0,0,1,.109-.538q3.969-9.747,7.939-19.492a.7.7,0,0,1,.8-.513C78.255,34.505,78.914,34.476,79.686,34.476Zm-.406.274c-.588,0-1.061.026-1.529-.007a.683.683,0,0,0-.784.533c-.557,1.442-1.159,2.865-1.743,4.3q-3.044,7.458-6.08,14.92a1.044,1.044,0,0,0-.072.641c.2.646.453,1.276.719,2Z" transform="translate(-43.543 -33.521)"/>
        <path id="Path_298243" data-name="Path 298243" d="M37.7,57.728l-9.82-23.241c.871,0,1.638-.024,2.4.021.147.009.335.264.41.445,1.084,2.612,2.151,5.231,3.224,7.848q2.392,5.833,4.793,11.662a1.154,1.154,0,0,1,0,1.065C38.366,56.2,38.077,56.892,37.7,57.728ZM28.282,34.759,37.7,57.034c.119-.238.2-.387.269-.54.69-1.5.673-1.492.04-3.023-1.319-3.185-2.619-6.378-3.927-9.567-1.186-2.894-2.368-5.791-3.569-8.679-.078-.187-.3-.427-.469-.445A17.277,17.277,0,0,0,28.282,34.759Z" transform="translate(-27.878 -33.528)"/>
        <path id="Path_298244" data-name="Path 298244" d="M44.854,67.344c1.894-4.219,3.743-8.335,5.668-12.622.329.921.615,1.683.863,2.457.043.134-.054.329-.118.481-1.321,3.107-2.643,6.214-3.986,9.311a.728.728,0,0,1-.517.357C46.183,67.373,45.6,67.344,44.854,67.344Zm.4-.254a12.079,12.079,0,0,0,1.349-.016.687.687,0,0,0,.478-.329c1.235-2.85,2.387-5.738,3.7-8.552.483-1.036.086-1.767-.308-2.7Z" transform="translate(-34.387 -41.289)"/>
        <path id="Path_298245" data-name="Path 298245" d="M60.688,58.866a1.246,1.246,0,0,1-.156.036c-1.195.05-1.19.048-1.649-1.051Q56.6,52.374,54.307,46.9c-.274-.659-.5-1.34-.748-2.031,1.4-.918,2.773-1.8,4.128-2.721a7.564,7.564,0,0,0,1.2-1.014,3.008,3.008,0,0,0,.5-3.926,6.38,6.38,0,0,0-.685-1.035c-1.189-1.4-2.772-1.6-4.581-.523-1.377.817-2.709,1.708-4.062,2.565-.188.119-.379.233-.6.369l-.895-1.353c.643-.419,1.263-.83,1.891-1.228,1.033-.656,2.042-1.357,3.113-1.944a4.281,4.281,0,0,1,5.874,1.215,7.765,7.765,0,0,1,1.771,3.671,3.825,3.825,0,0,1-1.506,3.692c-1.151.935-2.425,1.718-3.652,2.558-.6.41-.641.54-.37,1.207q2.382,5.861,4.753,11.727C60.539,58.365,60.606,58.616,60.688,58.866Z" transform="translate(-35.811 -33.107)" fill="#aa93d7"/>
        <path id="Path_298246" data-name="Path 298246" d="M79.473,34.922,69.984,57.306c-.266-.726-.52-1.355-.719-2a1.044,1.044,0,0,1,.072-.641q3.03-7.464,6.08-14.92c.584-1.431,1.186-2.854,1.743-4.3a.683.683,0,0,1,.784-.533C78.413,34.948,78.885,34.922,79.473,34.922Z" transform="translate(-43.736 -33.694)" fill="#aa93d7"/>
        <path id="Path_298247" data-name="Path 298247" d="M28.533,34.925a17.276,17.276,0,0,1,1.759.021c.173.018.39.258.469.445,1.2,2.888,2.383,5.785,3.569,8.679,1.308,3.19,2.608,6.382,3.927,9.567.633,1.53.65,1.524-.04,3.023-.071.154-.15.3-.269.54Z" transform="translate(-28.129 -33.694)" fill="#aa93d7"/>
        <path id="Path_298248" data-name="Path 298248" d="M45.508,67.571l5.218-11.595c.394.932.79,1.662.308,2.7-1.311,2.814-2.463,5.7-3.7,8.552a.687.687,0,0,1-.478.329A12.083,12.083,0,0,1,45.508,67.571Z" transform="translate(-34.637 -41.77)" fill="#aa93d7"/>
      </g>
      <g id="Group_132231" data-name="Group 132231" transform="translate(-21616 4986.888)">
        <g id="Ellipse_9641" data-name="Ellipse 9641" fill="none" stroke="#aa93d7" stroke-width="4">
          <circle cx="35" cy="35" r="35" stroke="none"/>
          <circle cx="35" cy="35" r="33" fill="none"/>
        </g>
      </g>
    </g>
  </g>
</svg>
