<svg xmlns="http://www.w3.org/2000/svg" xmlns:xlink="http://www.w3.org/1999/xlink" width="31.212" height="31.212" viewBox="0 0 31.212 31.212">
  <defs>
    <linearGradient id="linear-gradient" x1="0.5" x2="0.5" y2="1" gradientUnits="objectBoundingBox">
      <stop offset="0" stop-color="#f7366a"/>
      <stop offset="1" stop-color="#ff9f1c"/>
    </linearGradient>
  </defs>
  <path id="check_1292834" d="M31.212,16.106a15.544,15.544,0,0,1-2.644,8.663,1.219,1.219,0,0,1-2.027-1.355,13.134,13.134,0,0,0,1.818-10.6,1.219,1.219,0,1,1,2.362-.608A15.662,15.662,0,0,1,31.212,16.106ZM22.417,27.377a13.168,13.168,0,1,1,.664-22.112,1.219,1.219,0,1,0,1.386-2.006,15.607,15.607,0,0,0-19.9,23.882,15.612,15.612,0,0,0,19.11,2.322,1.219,1.219,0,1,0-1.264-2.086Zm-6.694-7.736a.7.7,0,0,1-.513-.194L8.825,13.392a1.219,1.219,0,0,0-1.678,1.769l6.384,6.053a3.113,3.113,0,0,0,2.161.865l.13,0a3.116,3.116,0,0,0,2.214-1.043c.015-.016.028-.032.042-.049l12.865-16a1.219,1.219,0,0,0-1.9-1.528L16.2,19.426A.7.7,0,0,1,15.724,19.641Zm0,0" transform="translate(0 -0.5)" fill="url(#linear-gradient)"/>
</svg>
