<svg width="21" height="21" viewBox="0 0 21 21" fill="none" xmlns="http://www.w3.org/2000/svg">
<g clip-path="url(#clip0_7_1044)">
<path d="M16.9299 6.56254C16.6259 5.07365 15.8145 3.73644 14.6343 2.77913C13.4541 1.82182 11.9783 1.30376 10.4587 1.31336C8.9391 1.32297 7.46993 1.85964 6.30194 2.83179C5.13396 3.80394 4.33955 5.1513 4.05431 6.64392C2.84311 6.85951 1.75665 7.5211 1.00919 8.49823C0.26173 9.47536 -0.0924777 10.6971 0.0164216 11.9225C0.125321 13.1479 0.689422 14.288 1.59748 15.118C2.50554 15.948 3.69164 16.4077 4.92187 16.4063H5.25V15.0938H4.92187C3.98511 15.0962 3.08416 14.7341 2.40965 14.0841C1.73514 13.434 1.34001 12.547 1.30787 11.6108C1.27572 10.6746 1.60909 9.76262 2.23742 9.06784C2.86575 8.37305 3.73975 7.94999 4.67447 7.88817L5.22375 7.85076L5.28281 7.30411C5.41535 6.08302 5.97219 4.94717 6.85628 4.09452C7.74037 3.24188 8.89564 2.72652 10.1207 2.63827C11.3458 2.55003 12.563 2.89449 13.5602 3.61162C14.5573 4.32874 15.2712 5.37306 15.5774 6.56254H16.9299Z" fill="#DE0429"/>
<path d="M18.375 7.875H11.8125C11.4645 7.87535 11.1309 8.01374 10.8848 8.25981C10.6387 8.50587 10.5003 8.83951 10.5 9.1875V11.8125H7.875C7.52701 11.8128 7.19337 11.9512 6.94731 12.1973C6.70124 12.4434 6.56285 12.777 6.5625 13.125V19.6875H19.6875V9.1875C19.6872 8.83951 19.5488 8.50587 19.3027 8.25981C19.0566 8.01374 18.723 7.87535 18.375 7.875ZM7.875 18.375V13.125H10.5V18.375H7.875ZM18.375 18.375H11.8125V9.1875H18.375V18.375Z" fill="#DE0429"/>
<path d="M13.125 10.5H14.4375V13.125H13.125V10.5ZM15.75 10.5H17.0625V13.125H15.75V10.5ZM13.125 14.4375H14.4375V17.0625H13.125V14.4375ZM15.75 14.4375H17.0625V17.0625H15.75V14.4375Z" fill="#DE0429"/>
</g>
<defs>
<clipPath id="clip0_7_1044">
<rect width="21" height="21" fill="white"/>
</clipPath>
</defs>
</svg>
