<svg width="31" height="31" viewBox="0 0 31 31" fill="none" xmlns="http://www.w3.org/2000/svg">
<path d="M18.0833 9.04165C19.8667 9.04165 21.3125 7.5959 21.3125 5.81248C21.3125 4.02906 19.8667 2.58331 18.0833 2.58331C16.2999 2.58331 14.8541 4.02906 14.8541 5.81248C14.8541 7.5959 16.2999 9.04165 18.0833 9.04165Z" fill="#DE0429"/>
<path d="M18.7292 17.6312L12.7876 14.9833C12.1417 14.6604 11.8188 15.6292 11.4959 16.275C11.173 16.9208 8.84797 20.925 9.04172 21.6354C9.23547 22.2167 9.75214 22.5396 10.2688 22.5396C10.398 22.5396 10.5271 22.5396 10.6563 22.475L18.6001 20.0208C19.1167 19.8917 19.5042 19.375 19.5042 18.8583C19.5042 18.3417 19.1813 17.825 18.7292 17.6312Z" fill="#DE0429"/>
<path d="M17.3083 9.81665L15.8875 9.17082C15.0479 8.78332 14.0145 9.17082 13.627 10.0104L5.94162 26.5437C5.61871 27.1896 5.94162 27.9646 6.58746 28.2875C6.78121 28.3521 6.97496 28.4167 7.16871 28.4167C7.68537 28.4167 8.13746 28.1583 8.33121 27.7062C8.33121 27.7062 14.5312 19.1167 15.0479 18.0833C15.5645 17.05 18.2125 12.0771 18.2125 12.0771C18.5354 11.2375 18.2125 10.2042 17.3083 9.81665Z" fill="#DE0429"/>
<path d="M26.1562 10.1396C25.7042 9.62294 24.8646 9.49377 24.3479 9.94585L21.1187 12.6584L16.9854 10.3979C16.275 10.0104 15.3062 10.1396 14.8542 10.9792C14.3375 11.8188 14.5958 12.8521 15.3708 13.175L20.7312 15.3709C20.925 15.4354 21.1187 15.5 21.3125 15.5C21.6354 15.5 21.8937 15.3709 22.1521 15.1771L26.0271 11.9479C26.5437 11.4959 26.6083 10.7209 26.1562 10.1396ZM7.55625 14.9188L9.75208 11.625L12.7229 12.0125L13.6917 10.0104C13.95 9.42919 14.4667 9.10627 15.0479 9.04169H9.10625C8.65417 9.04169 8.26667 9.23544 8.00833 9.62294L5.425 13.4979C5.0375 14.0792 5.16667 14.9188 5.8125 15.3063C5.94167 15.4354 6.2 15.5 6.45833 15.5C6.84583 15.5 7.29792 15.3063 7.55625 14.9188Z" fill="#DE0429"/>
</svg>
