<svg width="20" height="20" viewBox="0 0 20 20" fill="none" xmlns="http://www.w3.org/2000/svg">
<g clip-path="url(#clip0_7_1030)">
<path d="M6.54166 17.6042C5.09722 16.9375 3.92361 15.9306 3.02083 14.5834C2.11805 13.2361 1.66666 11.7153 1.66666 10.0209C1.66666 9.65974 1.68416 9.30558 1.71916 8.95835C1.75416 8.61113 1.81305 8.27085 1.89583 7.93752L0.937497 8.50002L0.104164 7.06252L4.08333 4.77085L6.375 8.72919L4.91666 9.56252L3.79166 7.60419C3.63889 7.97919 3.52444 8.36808 3.44833 8.77085C3.37222 9.17363 3.33389 9.5903 3.33333 10.0209C3.33333 11.3681 3.70139 12.5939 4.4375 13.6984C5.17361 14.8028 6.15278 15.6186 7.375 16.1459L6.54166 17.6042ZM12.9167 7.50002V5.83335H15.1875C14.5486 5.04169 13.7778 4.42724 12.875 3.99002C11.9722 3.5528 11.0139 3.33391 10 3.33335C9.23611 3.33335 8.51389 3.45141 7.83333 3.68752C7.15277 3.92363 6.52778 4.25696 5.95833 4.68752L5.125 3.22919C5.81944 2.74308 6.57639 2.36113 7.39583 2.08335C8.21527 1.80558 9.08333 1.66669 10 1.66669C11.0972 1.66669 12.1458 1.87169 13.1458 2.28169C14.1458 2.69169 15.0417 3.28502 15.8333 4.06169V2.91669H17.5V7.50002H12.9167ZM12.375 20L8.39583 17.7084L10.6875 13.75L12.125 14.5834L10.9375 16.625C12.5764 16.3889 13.9411 15.6459 15.0317 14.3959C16.1222 13.1459 16.6672 11.6806 16.6667 10C16.6667 9.84724 16.6633 9.70474 16.6567 9.57252C16.65 9.4403 16.6325 9.30502 16.6042 9.16669H18.2917C18.3056 9.30558 18.3161 9.44113 18.3233 9.57335C18.3306 9.70558 18.3339 9.8478 18.3333 10C18.3333 11.875 17.7742 13.5522 16.6558 15.0317C15.5375 16.5111 14.0828 17.5075 12.2917 18.0209L13.2083 18.5625L12.375 20Z" fill="#DE0429"/>
</g>
<defs>
<clipPath id="clip0_7_1030">
<rect width="20" height="20" fill="white"/>
</clipPath>
</defs>
</svg>
