<svg width="24" height="24" viewBox="0 0 24 24" fill="none" xmlns="http://www.w3.org/2000/svg">
<path d="M6.84999 17.15L3.64999 15.4L4.69999 14.35L7.19999 14.7L11.1 10.8L3.29999 6.54999L4.69999 5.14999L14.25 7.59999L18.175 3.72499C18.4583 3.44165 18.8127 3.29999 19.238 3.29999C19.6633 3.29999 20.0173 3.44165 20.3 3.72499C20.5827 4.00832 20.7243 4.36265 20.725 4.78799C20.7257 5.21332 20.584 5.56732 20.3 5.84999L16.4 9.74999L18.85 19.3L17.45 20.7L13.2 12.9L9.29999 16.8L9.64999 19.3L8.59999 20.35L6.84999 17.15Z" fill="#DE0429"/>
</svg>
