<svg width="16" height="16" viewBox="0 0 16 16" fill="none" xmlns="http://www.w3.org/2000/svg">
<g clip-path="url(#clip0_7_1039)">
<path d="M6.52571 4.92571C4.33143 3.42857 2.28571 4.57142 0.571426 6.33142L4.36571 8.61714M11.0743 9.47428C12.5714 11.6686 11.4286 13.7143 9.66857 15.4286L7.38286 11.6343" stroke="#DE0429" stroke-linecap="round" stroke-linejoin="round"/>
<path d="M6.03428 5.73716L10.2629 9.96574M4.36571 8.60574L7.39428 11.6343C9.81714 10.1829 12.5714 8.77716 13.8286 7.47431C16.5486 4.75431 14.9714 1.02859 14.9714 1.02859C14.9714 1.02859 11.2457 -0.548551 8.52571 2.17145C7.22285 3.42859 5.80571 6.19431 4.36571 8.60574Z" stroke="#DE0429" stroke-linecap="round" stroke-linejoin="round"/>
<path d="M12 4.57145C12.1516 4.57145 12.2969 4.51124 12.4041 4.40408C12.5112 4.29691 12.5714 4.15157 12.5714 4.00002C12.5714 3.84847 12.5112 3.70312 12.4041 3.59596C12.2969 3.48879 12.1516 3.42859 12 3.42859C11.8484 3.42859 11.7031 3.48879 11.5959 3.59596C11.4888 3.70312 11.4286 3.84847 11.4286 4.00002C11.4286 4.15157 11.4888 4.29691 11.5959 4.40408C11.7031 4.51124 11.8484 4.57145 12 4.57145ZM4.20571 14.2172C3.54286 14.8572 0.571426 15.4286 0.571426 15.4286C0.571426 15.4286 1.14285 12.4572 1.78285 11.7943C2.01953 11.5413 2.32727 11.3659 2.66557 11.2911C3.00387 11.2164 3.35687 11.2458 3.67812 11.3756C3.99936 11.5053 4.27378 11.7293 4.46526 12.0181C4.65674 12.3068 4.75631 12.6467 4.75086 12.9932C4.74668 13.2231 4.69626 13.4499 4.6026 13.66C4.50895 13.8701 4.37397 14.0603 4.20571 14.2172Z" stroke="#DE0429" stroke-linecap="round" stroke-linejoin="round"/>
</g>
<defs>
<clipPath id="clip0_7_1039">
<rect width="16" height="16" fill="white"/>
</clipPath>
</defs>
</svg>
