<svg width="19" height="19" viewBox="0 0 19 19" fill="none" xmlns="http://www.w3.org/2000/svg">
<path fill-rule="evenodd" clip-rule="evenodd" d="M12.9064 1.86469C12.8182 1.71166 12.6917 1.58423 12.5393 1.49492C12.3869 1.40561 12.2139 1.35749 12.0372 1.3553C11.8606 1.35311 11.6865 1.39692 11.5319 1.48243C11.3773 1.56793 11.2477 1.69218 11.1557 1.84297L5.80855 10.5721L3.93976 7.74926C3.84688 7.60895 3.72066 7.49385 3.5724 7.41428C3.42414 7.3347 3.25846 7.29312 3.09019 7.29326H1.03141C0.761454 7.29326 0.502558 7.4005 0.311673 7.59138C0.120788 7.78227 0.0135498 8.04116 0.0135498 8.31111C0.0135498 8.58107 0.120788 8.83996 0.311673 9.03085C0.502558 9.22173 0.761454 9.32897 1.03141 9.32897H2.54462L4.99155 13.0285C5.086 13.1713 5.21492 13.2879 5.36639 13.3676C5.51786 13.4474 5.68699 13.4876 5.85813 13.4846C6.02928 13.4816 6.1969 13.4356 6.34551 13.3506C6.49412 13.2657 6.61891 13.1446 6.70833 12.9987L11.9998 4.36183L13.8917 7.63254C14.0268 7.86632 14.2493 8.03683 14.5102 8.10657C14.7711 8.17631 15.049 8.13956 15.2828 8.0044C15.5165 7.86924 15.6871 7.64675 15.7568 7.38588C15.8265 7.125 15.7898 6.84711 15.6546 6.61333L12.905 1.86333L12.9064 1.86469ZM14.0165 11.3172C13.4004 10.7743 12.7449 10.4785 12.0867 10.4255C11.6978 10.3958 11.3072 10.451 10.9418 10.5874C10.5764 10.7238 10.2451 10.9381 9.97091 11.2154C8.93948 12.2305 8.59748 14.1061 9.91391 15.4171L9.93698 15.4375L13.5497 18.7218C13.6746 18.8354 13.8375 18.8984 14.0064 18.8984C14.1753 18.8984 14.3381 18.8354 14.463 18.7218L18.0758 15.4375L18.0893 15.4239C19.4166 14.1468 19.0882 12.2794 18.0676 11.2643C17.795 10.9866 17.4658 10.7709 17.1023 10.632C16.7388 10.4932 16.3496 10.4343 15.9613 10.4595C15.3031 10.5043 14.6422 10.7865 14.0165 11.3172Z" fill="#DE0429"/>
</svg>
